<?xml version="1.0" encoding="utf-8"?>
<!-- Generator: Adobe Illustrator 17.0.0, SVG Export Plug-In . SVG Version: 6.00 Build 0)  -->
<!DOCTYPE svg PUBLIC "-//W3C//DTD SVG 1.1//EN" "http://www.w3.org/Graphics/SVG/1.1/DTD/svg11.dtd">
<svg version="1.1" id="Layer_1" xmlns:sketch="http://www.bohemiancoding.com/sketch/ns"
	 xmlns="http://www.w3.org/2000/svg" xmlns:xlink="http://www.w3.org/1999/xlink" x="0px" y="0px" width="116px" height="122px"
	 viewBox="0 0 116 122" enable-background="new 0 0 116 122" xml:space="preserve">
<title>Cat@2x</title>
<desc>Created with Sketch.</desc>
<g id="Web" sketch:type="MSPage">
	<g id="Newfeeds" transform="translate(-663.000000, -223.000000)" sketch:type="MSArtboardGroup">
		<g id="Login-pop-up" sketch:type="MSLayerGroup">
			<g id="Cat-_x2B_-Hand" transform="translate(81.000000, 0.000000)">
				<g id="Cat" transform="translate(19.000000, 0.000000)">
					<path fill="#ED3554" d="M571.687,315.323c-4.505,9.288-7.276,19.532-8.662,29.677H677.77c0.126-0.141,0.261-0.274,0.386-0.415
						c-0.195-1.675-0.423-3.344-0.692-5.004c-1.431-8.864-4.262-17.688-8.634-25.613c0.875-8.407,0.073-16.958-1.826-25.174
						c-1.332-5.762-2.913-11.501-5.117-16.997c-1.202-2.996-2.602-6.075-4.397-8.764c-3.516-5.268-6.172-3.217-10.043,0.721
						c-6.49,6.603-11.753,14.162-17.979,21.036c-0.328,0.362-0.682,0.793-1.05,1.276c-1.208,0.093-2.483,0.165-3.856,0.15
						c-3.878-0.041-8.1-0.281-12.33-0.36c-0.337-0.452-0.662-0.858-0.965-1.202c-6.123-6.966-11.272-14.603-17.663-21.302
						c-3.812-3.995-6.437-6.087-10.031-0.871c-1.834,2.662-3.28,5.72-4.527,8.698c-2.286,5.462-3.953,11.177-5.371,16.918
						c-2.139,8.662-3.057,17.716-2.056,26.607C571.644,314.903,571.666,315.111,571.687,315.323z"/>
					<path id="Fill-3" fill="#FFFFFF" d="M617.664,323.317c0.011,3.162-0.806,6.266-2.607,8.849
						c-4.851,6.956-15.828,8.44-23.241,5.306c-10.981-4.643-13.755-15.493-6.286-24.838c4.754-5.948,13.051-8.598,20.377-6.498
						C613.056,308.184,617.638,315.907,617.664,323.317"/>
					<path id="Fill-4" fill="#0B5384" d="M612.126,321.034c-0.463,5.446-5.598,9.456-11.47,8.958
						c-5.872-0.498-10.258-5.317-9.796-10.763c0.463-5.446,5.598-9.456,11.47-8.958C608.203,310.77,612.589,315.588,612.126,321.034
						"/>
					<path id="Fill-5" fill="#FFFFFF" d="M624.472,323.317c-0.011,3.162,0.806,6.266,2.607,8.849
						c4.851,6.956,15.828,8.44,23.241,5.306c10.981-4.643,13.755-15.493,6.286-24.838c-4.754-5.948-13.051-8.598-20.377-6.498
						C629.08,308.184,624.499,315.907,624.472,323.317"/>
					<path id="Fill-6" fill="#0B5384" d="M630.01,321.034c0.463,5.446,5.598,9.456,11.47,8.958
						c5.873-0.498,10.258-5.317,9.796-10.763c-0.463-5.446-5.598-9.456-11.47-8.958C633.933,310.77,629.547,315.588,630.01,321.034"
						/>
					<path id="Fill-7" fill="#FFFFFF" d="M608.668,312.489c0,1.548-1.255,2.802-2.804,2.802c-1.548,0-2.804-1.254-2.804-2.802
						c0-1.548,1.255-2.802,2.804-2.802C607.413,309.687,608.668,310.942,608.668,312.489"/>
					<path id="Fill-8" fill="#FFFFFF" d="M639.233,313.032c0,1.548-1.255,2.802-2.804,2.802c-1.548,0-2.804-1.255-2.804-2.802
						c0-1.548,1.255-2.802,2.804-2.802C637.978,310.229,639.233,311.484,639.233,313.032"/>
					<path id="Fill-10" fill="#295B84" d="M630.339,256.408c-2.211,3.922-4.489-2.753-5.29-4.455
						c-2.17,0.791-5.222,0.901-7.518,1.018c2.053,3.092-1.581,3.223-4.026,3.338c-0.348-2.03-0.894-3.547-2.431-4.604
						c-2.723-1.87-5.336-5.643-6.142-8.871c-0.789-3.131-0.341-6.4,2.078-8.703c2.518-2.413,6.16-3.109,9.533-2.785
						c1.675,0.153,3.268,0.501,4.954,0.582c1.573,0.105,2.628-0.343,4.185-0.499c2.114-0.217,2.779,1.397,3.753,3.143
						c1.296,2.359,2.533,6.203-1.286,6.68c0.585,1.877,1.237,3.335,1.323,5.263c-0.034-0.716,6.42-0.17,6.988,0.175
						c3.405,2.167-3.271,3.637-4.367,5.29C631.484,252.91,631.101,255.047,630.339,256.408"/>
					<g>
						<path fill="#D32A57" d="M670.855,332.363c0.173,4.53-0.769,8.788-2.649,12.637h9.567c0.133-0.148,0.274-0.288,0.406-0.437
							c-0.195-1.675-0.424-3.344-0.692-5.005c-1.431-8.864-4.262-17.688-8.633-25.613c0.875-8.407,0.073-16.958-1.826-25.174
							c-0.779-3.37-1.645-6.733-2.669-10.044c0.441,4.162,1.012,8.483,0.141,12.591c-0.026,0.125-0.054,0.25-0.084,0.377
							c-1.238,5.283-12.305,2.846-6.616,10.084C664.492,310.294,670.432,321.286,670.855,332.363z"/>
						<path fill="#D32A57" d="M571.71,315.301c-4.508,9.294-7.28,19.547-8.666,29.699h10.506c-2.204-4.167-3.272-8.833-3.008-13.801
							c0.369-6.936,2.856-13.619,6.201-19.648c1.805-3.253,3.868-6.391,6.199-9.292c2.737-3.405,1.7-4.856-1.489-6.945
							c-1.708-1.119-3.401-2.565-3.865-4.682c-0.028-0.127-0.054-0.253-0.078-0.378c-0.901-4.585-0.013-9.406,0.491-13.985
							c0.097-0.881,0.373-1.879,0.082-2.637c-1.792,4.703-3.178,9.563-4.383,14.442c-2.139,8.662-3.057,17.716-2.056,26.607
							C571.668,314.881,571.689,315.089,571.71,315.301z"/>
					</g>
				</g>
			</g>
		</g>
	</g>
</g>
</svg>
