<?xml version="1.0" encoding="UTF-8" standalone="no"?>
<svg width="87px" height="85px" viewBox="0 0 87 85" version="1.1" xmlns="http://www.w3.org/2000/svg" xmlns:xlink="http://www.w3.org/1999/xlink" xmlns:sketch="http://www.bohemiancoding.com/sketch/ns">
    <!-- Generator: Sketch 3.4.1 (15681) - http://www.bohemiancoding.com/sketch -->
    <title>Upload</title>
    <desc>Created with Sketch.</desc>
    <defs>
        <path id="path-1" d="M0,0.554731414 L86.5788117,0.554731414 L86.5788117,121.538462 L0,121.538462"></path>
        <path id="path-3" d="M0,0.554731414 L86.5788117,0.554731414 L86.5788117,121.538462 L0,121.538462"></path>
    </defs>
    <g id="Web" stroke="none" stroke-width="1" fill="none" fill-rule="evenodd" sketch:type="MSPage">
        <g id="web-style" sketch:type="MSArtboardGroup" transform="translate(-927.000000, -5096.000000)">
            <g id="Mask-+-Chúc-mừng-!-+-Page-1-Copy-2" sketch:type="MSLayerGroup" transform="translate(923.000000, 5081.000000)">
                <g id="Upload" transform="translate(3.841515, 15.384615)">
                    <path d="M57.9897009,18.692208 C60.3514283,17.0246188 62.8162524,15.5084435 65.2871809,14.0065269 C71.8277144,10.0317439 78.4245441,6.14998195 85.0756353,2.36327804 C83.862893,12.4177 82.2133464,22.4198401 80.1331,32.3309961 C80.0978301,32.5000636 80.0550992,32.6813528 79.9228371,32.7920275 C79.6827304,32.9923283 79.3225703,32.8429514 79.0505851,32.6881427 C76.7037795,31.3512196 74.3569739,30.0149755 72.0101684,28.6780524 C72.0515427,29.7365913 71.4628065,30.7414903 70.6753379,31.4496725 C69.8885476,32.1571758 68.9152338,32.6175281 67.9575201,33.0683747 L65.1189706,27.3703257 C64.0459514,25.2159037 62.9240969,22.9983361 61.0873486,21.4448165 C60.0339991,20.5539871 58.7439343,19.8763593 58.0263273,18.6976399" id="Fill-1" fill="#BAE5E6" sketch:type="MSShapeGroup"></path>
                    <path d="M76.8580175,14.8385561 C76.6870941,15.0388569 76.5297361,15.2296519 76.4083262,15.4082252 C75.3990641,16.902673 74.3891238,18.3971208 73.3798618,19.8915685 C72.8046909,20.7430168 72.2288418,21.5958229 71.742524,22.50159 C70.8892635,24.0904168 69.9505413,26.1355221 69.7178955,27.9294027 C70.5521646,28.1113709 71.3932163,28.4243833 71.3755813,29.5073657 C71.3681204,29.9602492 71.1700663,30.3852944 70.9760818,30.7947228 C70.6973138,31.3820456 70.3466495,32.7597078 69.8549056,33.1637043 C69.239717,33.6695488 68.8693829,32.9579716 68.34983,32.3733648 C67.28495,31.1763128 66.5218991,29.8597593 65.7337522,28.4780232 C65.3674878,27.7311388 65.0514151,26.9401203 64.9991885,26.1090417 C64.9055876,24.6268156 65.8070051,23.4840825 66.8725634,22.5701676 C67.3670204,22.1458015 67.9808525,21.8558745 68.4658137,21.449841 C69.133229,20.8903567 69.6534601,20.0429824 70.2320223,19.389119 C72.4852269,16.8415642 75.1542096,13.930752 78.1033167,12.1945853 C78.4119284,13.1227589 77.5301806,14.0522905 76.8580175,14.8385561" id="Fill-3" fill="#7FB9B9" sketch:type="MSShapeGroup"></path>
                    <path d="M37.6949877,40.2496682 C38.2898283,40.4010821 39.0115049,40.7025518 39.0284616,41.316355 C39.0359225,41.5770855 38.9016256,41.8201624 38.7490154,42.031327 C38.134505,42.8814173 36.9753459,43.6154009 36.0420498,44.0710004 C32.6683472,45.717541 28.250791,46.9947134 24.5169284,45.9755557 C22.6028575,45.4527366 21.0482684,44.2597585 20.5192197,42.3131061 C20.2764,41.4175239 20.3666096,40.8940258 19.5126708,40.3426893 C18.3758944,39.6080266 17.1068559,39.2760026 15.9470185,38.5766472 C14.8685732,37.9261788 13.7494318,37.3279923 12.5868813,36.8425174 C11.0363618,36.1940859 7.73794696,34.9528999 6.88739951,37.2410821 C5.85846771,40.0147391 6.13520085,43.8265655 6.10874842,46.7502785 C6.07890465,50.0324959 6.2240539,53.3133554 6.36784661,56.5921779 C6.44856044,58.4288346 6.52927427,60.2654912 6.6099881,62.1014688 C6.76327656,65.5962089 7.36083023,68.9979278 7.85053936,72.4519287 C8.22019515,75.0571972 9.11143865,77.5660498 9.36511069,80.1699605 C9.62285234,82.8064624 11.3897392,85.0437207 12.3549138,87.4031964 C13.3838456,89.9188388 15.2077069,92.2348595 17.3015187,93.9703472 C19.5872802,95.8640387 22.3925946,96.9802914 25.3328842,97.3089205 C28.8673361,97.7034113 32.1440464,97.8765526 35.5231751,96.6367245 C37.290062,95.9882931 39.0569488,95.3405406 40.8231574,94.6921092 C39.6639982,96.2211852 38.5055173,97.7509403 37.3463582,99.2800163 C36.10852,100.912977 34.5383307,101.979664 32.4316319,101.767141 C30.4653344,101.568878 29.2681922,102.044168 30.6566058,104.015263 C32.2464648,106.271533 34.277876,105.670631 36.6267164,104.81443 C38.2823673,104.210132 38.8141291,103.983351 38.7680069,105.904881 C38.7496936,106.643618 37.0614858,110.723643 37.6658222,111.076037 C36.5833072,110.44458 35.4567049,110.04941 34.2263277,109.766273 C32.9199845,109.466162 31.3179166,109.62776 30.5847095,110.750803 C29.7002486,112.105379 30.7210412,114.043205 32.1983078,114.699784 C33.6925312,115.364511 35.3712432,115.048783 36.9407542,115.29865 C36.7772917,116.12837 36.613151,116.957412 36.4496885,117.786454 C36.2964001,118.563214 36.2041557,119.517189 36.8301966,120.000627 C37.1048949,120.213149 37.4616637,120.278332 37.8028322,120.337404 C37.9574772,120.363884 38.1202614,120.390364 38.2667672,120.336046 C38.4831345,120.255246 38.6011531,120.028465 38.7110324,119.825448 C40.1944034,117.084382 42.4815214,117.266351 45.1647477,116.740816 C49.5578863,115.880541 54.0771826,116.280463 58.4879562,116.480764 C58.6758363,117.348508 58.9050907,118.207425 59.1750412,119.053441 C60.3111392,119.097575 61.5164206,119.246952 62.6362402,119.141709 C62.9821566,113.874138 63.373517,108.68397 63.6767026,103.445594 C64.063315,96.7820275 64.5625199,90.2739484 64.5462415,83.59137 C64.5455632,83.1513872 64.5523459,82.682887 64.7951657,82.3162346 C65.3330318,81.5028096 66.4982954,81.2495479 67.2972945,80.7993803 C72.6773123,77.7697456 77.2529049,72.4274852 76.9483628,65.9085423 C76.8038918,62.814404 76.5576807,58.8484478 74.8498031,56.203119 C73.1907608,53.6331577 72.0207494,50.8635746 70.138557,48.4232995 C68.4164359,46.1914731 66.3253372,44.1280352 64.4492492,42.126385 C63.672633,41.2980223 63.0357398,40.5151517 62.1180438,39.8680782 C59.6471153,38.1258006 57.8978635,35.6196639 55.5205359,33.7551689 C53.7909537,32.3992342 52.0844327,31.0141031 50.3935118,29.6099605 C49.0986992,28.5344469 47.8669654,27.2138195 46.2499757,26.6475453 C43.2398245,25.5937593 39.8254259,23.3476743 36.5616027,23.5771715 C32.0097495,23.8962948 33.4178328,28.5921607 33.5005814,31.8017267 C33.5555211,33.9446059 33.8207237,36.3393889 35.4648441,37.7129772 C36.4035664,38.4972058 37.8665894,39.1660069 37.7044834,40.3793545 C33.6253827,42.0055256 29.5462819,43.6316966 25.4671812,45.2578676 C24.8621666,45.4989076 24.2225603,45.7447005 23.5775279,45.6523584 C23.3252124,45.6163722 23.0905318,45.5314989 22.8707732,45.4140344" id="Fill-5" fill="#FF4F7C" sketch:type="MSShapeGroup"></path>
                    <path d="M32.8177017,114.307127 C32.1082339,114.508107 31.3865573,113.805356 31.0989719,113.224823 C32.0031025,114.250771 32.5931952,114.86729 33.941591,115.190487 C35.1021067,115.468872 36.2470222,114.942657 37.2406841,115.8783 C36.9252897,116.497535 36.6132867,117.236272 36.5515643,117.944454 C36.5244336,118.258145 36.9402116,120.073753 36.8968025,120.134862 C38.7505076,117.54521 41.8786773,116.105081 45.0231254,115.614853 C48.1675735,115.124626 51.3757788,115.474982 54.5385402,115.825339 C55.6027419,115.943483 56.7001787,116.071811 57.6307617,116.602099 C58.5613447,117.131708 59.2877692,118.17463 59.1093849,119.231811 C60.073203,119.151012 61.0532995,119.114346 61.9988044,118.934415 C61.6169398,116.060947 62.9212482,112.471828 63.3078607,109.535893 C63.7466998,106.196641 64.0308939,102.837019 64.1590864,99.4719656 C64.3523927,94.3673502 62.8574911,87.1137447 65.3487676,82.4484332 C67.4283358,78.5537705 72.5458641,77.1842561 74.9177655,73.4606979 C76.3835016,71.1602939 76.584947,68.284789 76.4974505,65.557303 C76.4004583,62.5310632 75.8910794,59.4980335 74.7631205,56.6782054 C73.8067633,54.2854594 72.0520853,52.7271869 70.7864382,50.5870236 C74.366334,56.6415402 74.520979,64.0058204 69.9148644,69.5198642 C69.3396936,70.2083558 68.841167,70.8934525 68.3053356,71.5995978 C67.8759923,72.164514 66.3505687,73.1245999 66.1837149,73.7363661 C66.4889353,72.6187555 66.3736298,71.302881 66.4143259,70.1553949 C65.9490343,70.0216347 65.4945951,70.3692755 65.1385047,70.6972256 C63.3126086,72.3756786 62.6886025,74.2944925 61.8346637,76.5487254 C61.0783954,78.5456227 60.6694001,80.6267142 60.0128372,82.6541659 C59.5041366,84.2246601 59.8059656,85.5357817 60.4964419,87.0723266 C62.9999273,92.6427263 63.8877794,99.9662673 61.5898091,105.707771 C59.3372827,111.334527 56.1969042,112.900947 50.1976282,113.229576 C45.4083813,113.492344 37.0175341,114.06405 39.6702383,106.420706 C40.0636334,105.288158 40.5397772,104.006912 41.3360633,103.11744 C41.9227647,102.462219 42.8404606,102.619744 43.2155425,101.551699 C43.4685363,100.830616 43.3091434,99.979847 42.8126516,99.3993141 C41.7979634,99.5935041 40.6510131,101.037707 39.7699436,101.615524 C38.5137922,102.439134 37.1918488,103.139168 35.7844438,103.668098 C35.242508,103.871794 34.649024,104.053083 34.0928446,103.891484 C33.5366653,103.729207 33.089687,103.080775 33.3467504,102.560672 C35.6779558,101.917673 37.3437808,99.9370709 39.0340234,98.2063361 C43.08735,94.0570537 48.5609687,91.6575178 53.7219061,89.0026833 C56.3501927,87.6508225 57.6524663,85.4502295 58.6162844,82.7675565 C59.0876803,81.4550769 59.6994776,80.1840155 60.1613778,78.8728939 C60.3797799,78.2550168 60.6334519,75.7923352 61.0017512,75.5017293 C59.7381388,76.5011964 58.2812202,77.2222793 56.8365105,77.9358934 C50.6791981,80.9757129 45.0285515,84.0046687 38.3984867,85.8508311 C30.8731088,87.9461813 21.4587559,88.7514585 16.3161317,81.594948 C13.0000819,76.9812394 12.4588244,70.8330228 12.2607703,65.4153949 C12.201761,63.7994087 12.3550495,62.1528681 11.9521586,60.5871268 C11.4014054,58.4476425 9.88344272,56.7128337 8.82670195,54.7736502 C7.04692803,51.5070494 6.60062801,47.7026919 6.18620657,44.0049351 C6.78308197,53.5426489 7.37995737,63.0803627 7.97683277,72.6180765 C8.2725574,77.3472127 10.3446646,81.3369334 11.6727124,85.7842905 C12.9390378,90.0265939 16.3480103,92.2787899 19.6803385,95.0748535 C22.4137565,97.3691465 26.2140893,98.0515273 29.7634632,97.6930228 C33.3121587,97.3345183 36.6912874,96.0430872 40.0209026,94.763199 C39.2592082,96.7920086 38.4527481,98.8907538 36.9042634,100.406929 C35.356457,101.923104 32.8414411,102.681532 30.9789185,101.574785 C30.4607222,102.574931 30.5190532,103.850066 31.1267808,104.798609 C33.6228053,104.980578 36.1595257,104.582692 38.4805571,103.644333 C38.262155,105.912146 38.0206917,108.255326 36.9015504,110.238644 C35.8570184,112.090917 33.6696057,113.930969 31.5235673,113.296796 C31.4916888,113.151493 31.1769726,113.195627 31.1566246,113.343646 C31.1369549,113.490986 31.2576865,113.617956 31.375705,113.708261 C31.8925449,114.102073 32.1753824,114.403543 32.8177017,114.307127" id="Fill-7" fill="#F3306B" sketch:type="MSShapeGroup"></path>
                    <path d="M45.0643641,48.7217817 C44.4980107,49.4476175 44.0693456,50.2963498 43.8326303,51.2849532 C43.570819,52.3747254 43.4446613,53.497089 43.4568701,54.6180945 C43.4677224,55.5741066 43.5823496,56.5416614 43.9391183,57.4290958 C45.8199541,62.1059502 51.5987932,65.5565561 56.4918149,63.551511 C60.1286853,62.0611371 62.7169541,59.6568483 62.7922417,55.4063971 C62.8383639,52.8085973 61.6825961,50.2698694 59.9102831,48.371425 C57.5614428,45.8551036 53.9035461,44.5514508 50.5542612,45.450428 C48.4245013,46.0221341 46.3747769,47.0419708 45.0643641,48.7217817" id="Fill-9" fill="#FFFFFF" sketch:type="MSShapeGroup"></path>
                    <path d="M57.9060027,47.0463163 C55.021331,45.4058865 50.8988211,44.5062303 48.046028,46.0923412 C45.5771343,47.4645716 45.5316904,50.1513184 46.0878697,52.7049841 C46.3340808,53.8341375 46.4948302,54.8410735 47.3792911,55.6483876 C49.2669095,57.3682587 52.0539107,58.1103902 54.595379,57.4823283 C57.6536872,56.7266171 59.7068029,53.1741633 60.0371192,50.2321177 C60.1069807,49.6155986 60.0934154,48.9474766 59.7434293,48.4355213 C59.5691146,48.1809016 59.32426,47.9846747 59.0760141,47.8020275 C58.7172106,47.537902 58.3244937,47.2846403 57.9060027,47.0463163" id="Fill-11" fill="#70041A" sketch:type="MSShapeGroup"></path>
                    <path d="M33.3616044,54.9169162 C33.0550275,54.8707452 32.7389549,54.8388328 32.4120299,54.8218582 C30.6749869,54.7301951 28.9223436,55.1735728 27.3609719,55.9177413 C24.3304727,57.3619441 21.5889154,60.2293012 21.4308791,63.7416949 C21.0510493,72.1780937 28.963718,77.7770107 36.7325939,73.6222965 C39.8580506,71.9506334 42.0766636,68.4233021 41.6473202,64.9014027 C41.5184494,63.8469377 41.1704982,62.8325329 40.8028772,61.8357817 C39.5847088,58.5379476 37.0554492,55.4723266 33.3616044,54.9169162" id="Fill-13" fill="#FFFFFF" sketch:type="MSShapeGroup"></path>
                    <path d="M39.1360348,61.9919484 C39.2554099,61.2769764 39.3741067,60.5341659 39.1780874,59.8368474 C39.0010596,59.2074276 38.5846033,58.6764607 38.1647557,58.1753691 C37.4559662,57.3307108 36.692237,56.505743 35.7365581,55.9578015 C34.3779883,55.1796837 32.7603203,55.0303068 31.1989485,54.9304959 C29.902101,54.8469807 28.5360703,54.8001306 27.3762329,55.3867744 C25.9525494,56.1058204 25.1081064,57.6960052 24.9656702,59.2861899 C24.823234,60.8756957 25.2932734,62.4638436 25.9545842,63.9161942 C26.2869353,64.646104 26.6687999,65.3536072 27.0961084,66.032593 C27.2921277,66.3435685 27.5064602,66.657939 27.8150719,66.8582398 C28.1074052,67.0476768 28.4580695,67.1189703 28.7992381,67.1861899 C30.444715,67.5121031 32.1200358,67.8400533 33.7885738,67.6716648 C35.4577901,67.5039553 37.1507458,66.7638608 38.0759027,65.362434 C38.7297526,64.3717937 38.9400155,63.16252 39.1360348,61.9919484" id="Fill-15" fill="#70041A" sketch:type="MSShapeGroup"></path>
                    <path d="M28.4369754,58.0145174 C28.3644008,59.3412557 28.9219367,60.8173709 29.7813016,61.4882089 C32.6184946,63.7023816 37.9700251,60.6245389 35.7195336,56.9912858 C34.6451579,55.257156 30.9092605,54.6569325 29.3261841,55.9884237 C28.7530481,56.4698247 28.4803845,57.2146721 28.4369754,58.0145174" id="Fill-17" fill="#FFFFFF" sketch:type="MSShapeGroup"></path>
                    <path d="M27.9730404,64.8353373 C28.0205192,65.0336012 28.1439639,65.2569875 28.3664356,65.5048174 C28.6628385,65.8341255 29.1437302,65.9400473 29.584604,65.9013451 C31.0822187,65.7689428 31.3372473,63.8032789 29.9223812,63.3103352 C28.9917982,62.98578 27.7214032,63.7774774 27.9730404,64.8353373" id="Fill-19" fill="#FFFFFF" sketch:type="MSShapeGroup"></path>
                    <path d="M31.7334911,63.6396433 C32.116034,64.0015428 32.7156225,64.1128964 33.2019403,63.9119166 C32.8322845,64.2208552 32.6416913,64.7307735 32.7183355,65.2060636 C32.4768723,64.94737 32.1085731,64.8122518 31.7572305,64.8543489 C31.8888144,64.4625741 31.8799969,64.0253073 31.7334911,63.6396433" id="Fill-21" fill="#FFFFFF" sketch:type="MSShapeGroup"></path>
                    <path d="M37.0419517,61.3621891 C37.2922324,61.5991551 37.684271,61.6718066 38.0030568,61.5400834 C37.7609153,61.7424211 37.6367923,62.0758032 37.6863058,62.3874577 C37.5282695,62.2177112 37.2874846,62.1294431 37.0575519,62.1566025 C37.1436918,61.9006248 37.1382657,61.6147718 37.0419517,61.3621891" id="Fill-23" fill="#FFFFFF" sketch:type="MSShapeGroup"></path>
                    <path d="M26.3898284,60.4888096 C26.9785646,61.045578 27.9010084,61.2166824 28.6498158,60.9077439 C28.0814276,61.3830339 27.788416,62.1679416 27.9057563,62.8998883 C27.5333875,62.5013236 26.9670341,62.2935539 26.4257766,62.3580576 C26.6285786,61.7557972 26.6156915,61.0829222 26.3898284,60.4888096" id="Fill-25" fill="#FFFFFF" sketch:type="MSShapeGroup"></path>
                    <path d="M48.4143951,50.2822269 C48.9671831,51.4976115 50.2762394,52.099193 51.5547736,52.1548698 C53.168372,52.2254843 55.125852,51.6239029 56.0231999,50.1688363 C57.4251788,47.8962707 55.8068326,45.3432841 53.3759219,45.2400782 C52.790577,45.2156347 52.2059104,45.1905122 51.6205656,45.1660688 C50.5346593,45.1198977 49.8964096,45.2699536 49.0567144,46.0080112 C47.8602505,47.0590812 47.7693627,48.8651835 48.4143951,50.2822269" id="Fill-27" fill="#FFFFFF" sketch:type="MSShapeGroup"></path>
                    <path d="M51.4999018,54.0611225 C51.2252034,52.7730864 48.7067962,52.4349514 48.7373182,54.3109893 C48.7685185,56.2637525 51.8987231,55.9324074 51.4999018,54.0611225" id="Fill-29" fill="#FFFFFF" sketch:type="MSShapeGroup"></path>
                    <path d="M46.4768561,51.4836244 C47.0655923,52.0403928 47.9880361,52.2114972 48.7368435,51.9025587 C48.1684553,52.3778487 47.8754437,53.1627563 47.992784,53.8947031 C47.6210934,53.4961384 47.0540618,53.2883687 46.5128043,53.3528724 C46.7156063,52.7506119 46.7027192,52.077737 46.4768561,51.4836244" id="Fill-31" fill="#FFFFFF" sketch:type="MSShapeGroup"></path>
                    <path d="M53.1248951,54.3142484 C53.4158718,54.5892376 53.8716676,54.6741109 54.2413234,54.5213391 C53.9605206,54.7562682 53.8153714,55.1439691 53.8737024,55.5051895 C53.6898919,55.3082836 53.4104457,55.2057568 53.14253,55.2376691 C53.2429136,54.9402733 53.2368092,54.6075703 53.1248951,54.3142484" id="Fill-33" fill="#FFFFFF" sketch:type="MSShapeGroup"></path>
                    <path d="M56.4256838,51.2861074 C56.6752863,51.5223945 57.0673249,51.595046 57.3847541,51.4640017 C57.1439691,51.6656605 57.0191679,51.9990425 57.0693597,52.3093391 C56.9113234,52.1402716 56.6705384,52.0520034 56.441284,52.0798419 C56.527424,51.8238642 56.5213196,51.5380112 56.4256838,51.2861074" id="Fill-35" fill="#FFFFFF" sketch:type="MSShapeGroup"></path>
                    <path d="M21.2064404,32.8953012 C21.2464582,35.2011371 21.2376407,37.7609136 21.0999524,40.134648 C20.9568379,42.6102303 21.5272609,45.0864916 21.8514728,47.5627529 C22.5622971,47.0867838 23.3416265,46.7235264 24.1168862,46.361627 C25.3404808,45.7912789 26.5647536,45.2209308 27.7883482,44.6499037 C31.3105913,43.008116 34.8477564,41.3602174 38.5700884,40.2466807 C38.2784334,38.9742613 36.9483508,38.2912015 35.9750369,37.4234577 C35.2445428,36.7716313 34.6802243,35.9582063 34.0928446,35.1753356 C32.3598712,32.8654259 29.6454446,30.2907116 27.2226731,28.7147856 C26.2812378,28.1023404 22.5405926,25.0394353 21.4926693,25.7170632 C20.3816671,26.4361092 21.251206,28.4676347 21.2457799,29.4861135 C21.2389972,30.6227357 21.1867706,31.758679 21.2064404,32.8953012" id="Fill-37" fill="#00DFF6" sketch:type="MSShapeGroup"></path>
                    <path d="M21.3037718,31.2470632 C21.6218792,29.9977293 22.2336765,28.8251208 23.0760847,27.8500971 C23.3433221,27.5411586 23.6458294,27.2430838 24.0297289,27.1032127 C24.9765903,26.7589669 27.8788969,28.9894353 27.204699,29.6602733 C26.5569536,30.3059888 25.75185,30.8851637 25.2044882,31.6164315 C23.5718983,33.7959759 22.5436448,36.378838 21.7948374,38.9793537 C21.2271275,36.4338358 20.6607742,33.7742484 21.3037718,31.2470632" id="Fill-39" fill="#FFE827" sketch:type="MSShapeGroup"></path>
                    <path d="M38.3833614,40.1528449 C38.4674665,40.2757413 38.5441108,40.4047486 38.613294,40.5391878 C38.2131162,39.7597121 28.7309366,43.4343833 28.8686249,44.4386034 C28.6169876,42.6066996 28.5566218,41.3356382 28.9859651,39.4806489 C29.3515513,37.8999699 29.7686858,36.0096734 30.9149579,34.7888569 C32.3698417,33.2400902 34.077041,34.9945896 34.9459017,36.2860206 C35.9341374,37.7553459 37.3951256,38.7004942 38.3833614,40.1528449" id="Fill-41" fill="#FFE827" sketch:type="MSShapeGroup"></path>
                    <path d="M23.3823225,22.219743 C23.2459908,21.1442295 23.2107208,20.0551362 23.2778693,18.9728328 C22.402226,19.0570271 21.5272609,19.1419003 20.6516176,19.2260945 C20.6414436,19.873168 20.6319478,20.5209205 20.6217738,21.167994 C19.7081475,20.7796141 14.6184281,19.5309592 15.5415502,21.98074 C15.7416391,22.5130649 17.4352731,22.9965028 17.9012428,23.3387116 C18.7558599,23.9660945 19.4883888,24.8107529 20.0418551,25.7124461 C20.1503779,25.8896614 20.2371961,26.1578608 20.0655944,26.2753253 C19.9862371,26.3296442 19.8817839,26.3242123 19.7861482,26.3160645 C17.8802166,26.1565028 15.9736066,25.9976201 14.0669967,25.8380584 C14.427835,27.3162106 16.1485996,28.2002501 16.3927759,29.7021667 C17.6184053,28.5709764 19.2964391,27.9456304 20.9622641,27.9999493 C20.9609075,27.4907099 20.959551,26.9807916 20.9588727,26.4715522 C21.5116608,26.2115006 22.1288842,26.0886042 22.7393249,26.1164426 C24.0938251,24.9703146 25.7013191,24.1256562 27.412588,23.6598719 C27.430223,22.4994852 27.2531951,21.3357035 26.890322,20.2337095 C26.8089299,19.9865587 23.6604122,22.1375857 23.3823225,22.219743" id="Fill-43" fill="#00DFF6" sketch:type="MSShapeGroup"></path>
                    <path d="M17.5345036,52.3653554 C23.8478175,46.5600266 32.1457421,43.5344658 40.2510388,41.1777061 C41.6482698,40.7709936 41.0473248,38.5663266 39.6494155,38.9920507 C31.2239766,41.5586171 22.6527102,44.8421925 16.1318464,50.9612127 C15.1965155,51.8384624 16.5957814,53.2283464 17.5345036,52.3653554" id="Fill-45" fill="#70041A" sketch:type="MSShapeGroup"></path>
                    <path d="M35.3276306,35.6182381 C34.9030352,31.983627 34.7307552,28.343584 34.935592,24.6865664 C35.0529323,22.5939321 34.7660251,21.3697207 37.2267796,22.1872196 C38.8335953,22.7215814 40.496029,23.8812892 41.9271734,24.7632918 C47.9189885,28.4562957 53.36412,33.6315256 58.6247627,38.2941212 C59.7981655,39.3329695 61.531139,37.6110615 60.3516318,36.5654233 C53.3783636,30.3852944 45.7146191,22.6855952 36.7987928,19.4264633 C34.9430529,18.7481564 33.5546394,18.766489 33.0635737,20.9018994 C32.0109025,25.4857327 32.6695003,31.0140352 33.229071,35.6182381 C33.3898204,36.9409024 35.4849887,36.963309 35.3276306,35.6182381" id="Fill-47" fill="#70041A" sketch:type="MSShapeGroup"></path>
                    <path d="M40.3970697,93.9469901 C35.3507595,96.0145019 29.6146513,97.9326369 24.1261107,96.6147254 C19.722798,95.5575445 16.2385379,92.4036554 13.9392111,88.6040507 C9.90080637,81.9302991 8.90714448,73.7410511 8.0572753,66.135731 C7.52212224,61.3522759 7.45022588,56.4757997 7.25420658,51.6645062 C7.15585779,49.2412058 7.09006584,46.8117946 7.18163195,44.3878152 C7.30100703,41.2162725 8.24854673,38.317682 8.59310662,35.2303335 C8.72129918,34.8534963 8.85017001,34.4766592 8.97836256,34.0998221 C8.44727911,33.6102733 8.46898367,33.5199682 9.04415451,33.8295857 C9.35276622,33.8329807 10.2114529,34.5167194 10.4447769,34.6681332 C11.8304774,35.5677894 13.132751,36.6093537 14.4146766,37.648202 C16.5369756,39.368752 18.4591857,41.3371319 20.2538815,43.394459 C21.2482217,44.5344761 22.8041673,42.8967624 21.890541,41.7560662 C19.0920093,38.2613262 14.1440479,33.2619536 9.80449238,31.6941753 C4.31120389,29.7094998 4.93046212,46.3439734 5.01388902,49.1814551 C5.26010012,57.5737198 5.65756488,66.0087606 7.09888332,74.2923876 C8.27567743,81.0578023 10.2582533,88.2896803 15.1024398,93.4058384 C22.2351009,100.937828 32.1635805,99.3442484 40.8854223,95.7211801 C41.9604763,95.2744074 41.4945066,93.4968225 40.3970697,93.9469901" id="Fill-49" fill="#70041A" sketch:type="MSShapeGroup"></path>
                    <path d="M60.1995642,38.705315 C66.0326647,45.2473434 72.8207659,51.9536863 75.1377277,60.6990236 C76.3043478,65.1042836 76.1212155,70.1688388 73.376267,73.9806652 C70.9087298,77.4068277 66.9924132,79.3202097 63.8025212,81.9533167 C62.7749459,82.80137 64.1362288,84.5871027 65.2357004,83.8130589 C68.7938917,81.3076012 72.8709577,78.8021435 75.3690169,75.1464839 C77.8725022,71.4819974 78.4422469,66.8377344 77.7300661,62.5282114 C76.0879804,52.5858221 68.2505995,44.3510821 61.4808115,37.4227108 C60.6594296,36.5814474 59.4276958,37.8396081 60.1995642,38.705315" id="Fill-51" fill="#70041A" sketch:type="MSShapeGroup"></path>
                    <path d="M58.4939249,85.6135935 C60.5036315,79.4429703 62.5689561,73.378269 65.6170902,67.6252222 C66.2512703,66.4288492 64.4423309,65.3648784 63.8000116,66.5619304 C60.6711636,72.3917026 58.2816272,78.694728 56.617837,85.0955273 C56.3004078,86.3156648 58.1073125,86.8011397 58.4939249,85.6135935" id="Fill-53" fill="#70041A" sketch:type="MSShapeGroup"></path>
                    <path d="M66.0608807,69.1165466 C63.8002151,77.0158676 62.9611982,85.4638092 63.2487836,93.6639209 C63.2969406,95.0538049 65.4646835,95.0585578 65.4104221,93.6639209 C65.0970625,85.5948535 65.7475211,77.427333 67.9064465,69.625786 C68.2360845,68.4355239 66.4000144,67.9310374 66.0608807,69.1165466" id="Fill-55" fill="#70041A" sketch:type="MSShapeGroup"></path>
                    <path d="M20.0041434,27.8274869 C19.8976554,34.4523515 19.6602618,41.3121453 20.8865694,47.8568896 C21.100902,49.0023386 23.0617733,48.7572248 22.9410417,47.5785054 C22.2654873,40.9604306 22.0145283,34.477474 21.9690844,27.8274869 C21.9602669,26.5611783 20.0244914,26.5604994 20.0041434,27.8274869" id="Fill-73" fill="#70041A" sketch:type="MSShapeGroup"></path>
                    <path d="M22.5920731,26.6849575 C25.0535058,28.909994 27.9144381,30.5612875 30.2795569,32.9676132 C32.7871119,35.5192419 35.041673,38.3037628 37.5173494,40.8852669 C38.5930817,42.0069514 40.3009592,40.2959072 39.2211574,39.1789755 C34.2569175,34.0431268 29.7410125,29.1293064 23.8021023,25.1151422 C22.8660931,24.4830064 21.7516996,25.9251723 22.5920731,26.6849575" id="Fill-75" fill="#70041A" sketch:type="MSShapeGroup"></path>
                    <path d="M24.0479064,25.7531173 C20.9421195,26.5862329 20.4320624,30.653358 20.1960253,33.3299201 C20.0861459,34.579254 21.9947907,34.5486996 22.1290877,33.3299201 C22.3162895,31.6290606 22.5095957,28.1737018 24.5599984,27.6128595 C25.7551057,27.2862673 25.2491182,25.431278 24.0479064,25.7531173" id="Fill-77" fill="#70041A" sketch:type="MSShapeGroup"></path>
                    <path d="M22.3029954,41.468991 C23.0680812,37.3611268 24.1004043,32.4065673 28.1422004,30.3336235 C29.3142466,29.7327211 28.2826017,27.9836536 27.111912,28.5689394 C22.5444587,30.8537267 21.2184457,36.3086988 20.377394,40.9373451 C20.1494961,42.1941478 22.0669584,42.7352995 22.3029954,41.468991" id="Fill-79" fill="#70041A" sketch:type="MSShapeGroup"></path>
                    <path d="M29.3018343,44.1526824 C29.5053146,41.2364383 29.9129533,36.2139802 32.8715562,34.5837353 C34.0001933,33.9617843 32.9855051,32.2140748 31.8609376,32.8523214 C28.2091454,34.9232282 27.632618,40.4352351 27.3877634,44.1526824 C27.3070496,45.3850417 29.2163726,45.3768939 29.3018343,44.1526824" id="Fill-81" fill="#70041A" sketch:type="MSShapeGroup"></path>
                    <path d="M20.5085031,27.4124908 C18.8006256,27.4579828 17.7126845,28.1070933 16.1967566,28.7562037 L17.2840194,28.7562037 C16.5033335,28.2381375 16.0705989,26.7660963 15.825066,25.9078582 C15.4703321,26.3736425 15.1155982,26.8401057 14.7608643,27.30589 C16.3310536,27.1999682 17.9012428,27.0940464 19.4721104,26.9881246 C20.4054065,26.9249789 20.9581945,25.8121212 20.2534745,25.0985071 C18.5503448,23.3745621 17.3735507,22.0179484 14.9582402,21.2785329 C15.1244157,21.9072737 15.289913,22.5360146 15.4554102,23.1640765 C16.1180776,22.3296029 16.9150419,20.5669557 18.2864988,21.4448844 C19.3147523,22.1028217 19.5833462,24.2952669 19.9000972,25.3863971 C20.2527963,26.6038187 22.1268494,26.3824693 22.1241363,25.0856064 C22.1193884,23.0343902 21.7232802,21.0408878 21.5387915,19.0025724 C21.1637095,19.3780516 20.7886276,19.7535307 20.4142239,20.1290099 C21.4967389,20.1276519 22.5792538,20.1269729 23.6617687,20.125615 C23.2873651,19.7508148 22.9129614,19.3760146 22.5378795,19.0012144 C22.5202445,20.6878152 21.9918741,22.1680043 21.385503,23.714055 C20.8883329,24.9837585 22.7454293,25.5208363 23.431836,24.577725 C23.8333704,24.0250305 24.7110486,22.7037241 25.3710028,22.2936167 C25.5249696,21.6370374 25.6891103,21.558954 25.8641033,22.0586876 C26.1401582,22.4952755 26.365343,22.9576648 26.540336,23.4472136 C26.2785248,24.2708234 23.2208949,24.430385 22.4836181,24.6388337 C21.0728217,25.0367194 21.6941147,27.2875574 23.089311,26.8360318 C24.6113432,26.3430881 27.3291611,26.3716055 28.4720418,25.0618419 C29.3856682,24.0141667 28.5425817,22.2569514 27.9802979,21.2486575 C25.8844513,17.489792 23.1693465,21.1651422 21.4987737,23.4465346 L23.5444285,24.3095256 C24.2450788,22.5387306 24.7639534,20.9132385 24.785658,19.0012144 C24.7924407,18.3928431 24.2654268,17.8761349 23.6617687,17.8761349 L20.4142239,17.8761349 C19.8458358,17.8761349 19.2347168,18.3935221 19.2889782,19.0025724 C19.4707538,21.035456 19.8607577,23.0384641 19.8594011,25.0856064 C20.6007475,24.9851165 21.3420939,24.8846266 22.0834403,24.7841367 C21.461469,22.6168139 20.8517065,19.7005698 18.3956999,18.8925767 C16.2252439,18.1782836 15.0240321,20.0943816 13.8621599,21.5691388 C13.3439635,22.2257181 13.4802953,23.189199 14.35933,23.4546824 C16.3493668,24.0562639 17.2969065,25.2553528 18.6900679,26.6635694 C18.9505227,26.0341495 19.2116557,25.4047297 19.4721104,24.7746309 C17.9012428,24.8819106 16.3310536,24.9891904 14.7608643,25.0964701 C14.0608923,25.1439991 13.4870779,25.7652712 13.6966626,26.4951809 C14.060214,27.7635264 14.7669687,29.8792462 16.0509291,30.5242828 C17.4162816,31.2100584 19.0929588,29.5961092 20.5085031,29.4555591 C21.7890722,29.3285887 21.8460466,27.3765045 20.5085031,27.4124908" id="Fill-83" fill="#70041A" sketch:type="MSShapeGroup"></path>
                    <path d="M67.7557355,69.8064641 C69.0966703,68.5143541 69.5707793,67.0015737 68.92846,65.2239888 C68.4217942,63.8212041 67.5732815,61.9560301 65.8192818,61.9526352 C62.1491763,61.9451663 62.7236689,67.3736579 65.32279,68.5618831 C66.6243853,69.1573537 67.7381005,67.3736579 66.4656707,66.605725 C65.9596831,66.3001813 65.6096971,65.8425449 65.4598,65.262691 C65.3682339,64.9075814 65.2963375,63.9997774 65.9325524,64.209584 C66.4426096,64.3772935 66.8834835,65.8316811 67.0082847,66.2614792 C67.2755221,67.180147 66.9350318,67.6880284 66.3571479,68.4063954 C65.5757837,69.3787031 66.8170133,70.7108732 67.7557355,69.8064641" id="Fill-85" fill="#70041A" sketch:type="MSShapeGroup"></path>
                    <path d="M75.7498641,49.8590829 C76.2667039,48.5119751 77.5526991,47.5321985 78.5368652,46.5347684 C79.4979703,45.5617817 78.0573301,44.1528861 77.0487463,45.0450735 C75.6874635,46.2495943 74.3383894,47.5335565 73.769323,49.3124994 C73.3596494,50.5930666 75.2845726,51.0710726 75.7498641,49.8590829" id="Fill-87" fill="#70041A" sketch:type="MSShapeGroup"></path>
                    <path d="M77.306895,54.1602544 C78.9177803,52.4858754 80.669067,51.0029703 82.6441819,49.774685 C83.8399675,49.0305165 82.7554178,47.1517628 81.5365711,47.8782776 C79.3851066,49.1615608 77.4791749,50.7952007 75.7509493,52.6026609 C74.7722093,53.6265716 76.3220505,55.183486 77.306895,54.1602544" id="Fill-89" fill="#70041A" sketch:type="MSShapeGroup"></path>
                    <g id="Group-93">
                        <mask id="mask-2" sketch:name="Clip 92" fill="white">
                            <use xlink:href="#path-1"></use>
                        </mask>
                        <g id="Clip-92"></g>
                        <path d="M1.64581609,85.4598711 C2.77852282,84.1657241 4.48979172,84.029248 6.02199801,83.4711216 C7.24152297,83.0257069 6.75113557,81.0939923 5.4773492,81.4945939 C3.59786996,82.0846326 1.57595454,82.4743704 0.247228504,84.0598023 C-0.561266357,85.0253202 0.800016517,86.4260679 1.64581609,85.4598711" id="Fill-91" fill="#70041A" sketch:type="MSShapeGroup" mask="url(#mask-2)"></path>
                    </g>
                    <path d="M41.4532679,69.7663361 C44.9517717,64.8735642 40.8482533,58.0348191 36.3560876,55.3344925 C31.1422453,52.2009729 24.0679153,54.6989618 21.4993163,60.0914671 C16.1945862,71.2309085 30.2116623,80.9879347 39.151228,73.1164521 C40.2425604,72.1556872 38.6621971,70.6205002 37.5688299,71.5323782 C31.0364356,76.9812394 20.3971316,71.5989188 22.6842496,62.7123524 C24.0055147,57.5765037 29.9857993,54.1863275 34.937152,56.7508569 C38.7842853,58.7430013 42.7426544,64.691596 39.8172867,68.8089661 C39.1084971,69.8063962 40.7492262,70.7508655 41.4532679,69.7663361" id="Fill-96" fill="#70041A" sketch:type="MSShapeGroup"></path>
                    <path d="M38.7578328,60.2847744 C38.9775915,64.3790589 34.9174823,67.5370219 30.9909917,66.5721831 C27.3880347,65.6867856 23.5178404,59.9079373 27.4985923,56.9360163 C28.5729681,56.1334551 27.5582799,54.3029093 26.4262514,55.1000387 C21.4599768,58.5961367 24.3670313,66.2842931 29.2614096,68.1725526 C34.6366795,70.2461753 41.0673337,66.2944779 40.6969996,60.2847744 C40.6210337,59.0449463 38.6906844,59.0320456 38.7578328,60.2847744" id="Fill-98" fill="#70041A" sketch:type="MSShapeGroup"></path>
                    <path d="M60.2422272,62.7595419 C70.5803805,53.8716175 56.4703817,37.760642 45.9382439,46.237101 C41.7506204,49.6069076 41.001813,55.6580292 43.8410408,60.1291508 C46.6985818,64.6287899 52.3885679,66.3602037 57.3765471,64.8467443 C58.8104046,64.4115144 58.2148857,62.2129583 56.7559323,62.5938694 C53.2614981,63.5064263 49.5690099,63.0060138 46.9040968,60.3667959 C43.8715628,57.3649996 43.3689666,52.3493313 46.1749593,49.0297697 C53.8909304,39.9028423 68.1318348,53.3501564 58.8931532,61.4090391 C57.964605,62.2197482 59.3163921,63.5553133 60.2422272,62.7595419" id="Fill-100" fill="#70041A" sketch:type="MSShapeGroup"></path>
                    <path d="M59.507867,49.2735935 C59.4827711,53.0908517 57.5754829,56.1727684 53.5153737,56.4973236 C48.964877,56.86126 45.7241149,53.2870786 46.7001418,48.7141092 C46.9965447,47.3235462 44.8640717,46.7294336 44.5663122,48.1247495 C43.3963008,53.6082389 46.8961611,58.6707572 52.6858525,58.6517456 C58.2761332,58.633413 61.5304607,54.6301126 61.523678,49.2735935 C61.5216432,47.9746936 59.5166845,47.9733356 59.507867,49.2735935" id="Fill-102" fill="#70041A" sketch:type="MSShapeGroup"></path>
                    <path d="M22.6859453,79.0473932 C21.2934621,79.8547073 19.9593099,81.1271268 20.4551235,82.8829841 C20.5690724,83.2869807 21.0058767,83.6875823 21.4542115,83.6448062 C22.7646243,83.5178358 23.9563403,82.9787211 24.883532,82.0301779 C25.2857446,81.6193915 25.7998714,81.0361427 25.9545164,80.4705475 C26.1518922,79.7494645 25.5570516,79.0847374 25.0056201,78.722838 C23.8376435,77.954905 22.6866235,79.9049523 23.9081833,80.6029497 C23.9773666,80.6138135 24.0106017,80.6545526 24.0085669,80.7251672 L24.0085669,79.6489746 C23.5324231,80.6226403 22.5591093,81.4435342 21.4542115,81.5705045 C21.7872408,81.8244452 22.1195919,82.0783859 22.4526213,82.3316476 C22.2355757,81.6126016 23.1865067,81.0945355 23.6999552,80.7842389 C24.8062095,80.1167959 23.8091563,78.3962458 22.6859453,79.0473932" id="Fill-104" fill="#70041A" sketch:type="MSShapeGroup"></path>
                    <path d="M69.7254921,53.8724323 C68.4300012,53.4718307 67.1250145,54.4685819 66.5349218,55.5529222 C66.2805715,56.0200645 66.3762072,56.7825655 66.9201778,57.0249635 C67.3183208,57.2014998 67.7130725,57.4466137 68.1600507,57.4608724 C68.556159,57.4730941 68.8952927,57.3087795 69.253418,57.1655135 C69.8190931,56.9387323 70.1480528,56.4593683 70.0096862,55.8319854 C69.81638,54.9533777 68.9637977,54.6104899 68.1532681,54.8291233 C67.587593,54.9825741 67.2416766,55.6011302 67.3956433,56.1646884 C67.5516448,56.7323206 68.1627638,57.0779244 68.7297954,56.9224366 C68.4021922,56.9176837 68.13292,56.7465793 67.9213006,56.4084443 C68.1736161,55.9637086 68.4252533,55.5189729 68.6775689,55.0742372 C68.5208891,55.1380619 68.3648875,55.2073184 68.2054947,55.2650322 C68.1729378,55.276575 68.0976501,55.2881177 68.071876,55.3105243 C68.0081188,55.3655221 68.3180871,55.3010185 68.1824336,55.2976235 C68.1959989,55.2976235 68.4774799,55.3410786 68.3282611,55.3044134 C68.3818442,55.3173141 68.5480198,55.4015084 68.4021922,55.3349678 C68.1871814,55.2365148 67.968101,55.1462097 67.7490206,55.0579416 C67.9626749,55.5848346 68.1770074,56.1117275 68.39134,56.6386205 C68.4354274,56.5489944 68.4808713,56.4614052 68.5337761,56.375853 C68.5527676,56.3452987 68.6857081,56.1667254 68.6063508,56.2638204 C68.66536,56.1918479 68.7331868,56.1273442 68.8003353,56.0628406 C68.926493,55.9413021 68.6273771,56.1578986 68.8796926,55.994942 C68.936667,55.9582768 68.9956763,55.9256854 69.0540073,55.8910572 C69.3008967,55.7430382 68.9685456,55.9168586 69.1116601,55.8693296 C69.2751225,55.8150107 69.2296786,55.8930941 69.1367559,55.8530339 C69.3259926,55.9351912 68.9631195,55.7973571 69.1794868,55.8550709 C70.4607341,56.1986377 70.9863914,54.2621702 69.7254921,53.8724323" id="Fill-106" fill="#70041A" sketch:type="MSShapeGroup"></path>
                    <path d="M23.1597151,52.8754095 C23.1054537,52.4062303 23.1305496,51.9696425 23.4099958,51.7849583 C23.7362425,51.5703988 24.2368039,51.6708887 24.6898866,51.8358823 C25.2074047,52.0253193 25.8076715,51.6240387 25.9453598,51.1229471 C26.1000047,50.5587099 25.7540883,50.0494706 25.2325006,49.8661444 C24.2340908,49.5144297 23.0647577,49.5239355 22.1952187,50.1866257 C21.2510704,50.9056717 21.0774339,52.0246403 21.2361485,53.1361401 C21.3907935,54.2177645 23.2872294,53.9746876 23.1597151,52.8754095" id="Fill-108" fill="#70041A" sketch:type="MSShapeGroup"></path>
                    <path d="M41.8944131,43.7655247 C41.9730921,43.1211672 42.5245236,42.6418032 43.1376774,42.9011758 C44.5267693,43.4884985 45.3644296,41.5465991 43.9461723,40.9816829 C43.0589984,40.6279312 42.0266752,40.6924349 41.2297109,41.2383395 C40.3683112,41.8283782 39.9803422,42.7558728 39.8786021,43.7655247 C39.8236624,44.3087134 40.3811983,44.7744976 40.8865076,44.7744976 C41.486096,44.7744976 41.8279429,44.3087134 41.8944131,43.7655247" id="Fill-110" fill="#70041A" sketch:type="MSShapeGroup"></path>
                    <g id="Group-114">
                        <mask id="mask-4" sketch:name="Clip 113" fill="white">
                            <use xlink:href="#path-3"></use>
                        </mask>
                        <g id="Clip-113"></g>
                        <path d="M58.1228448,19.8474345 C66.9613486,13.6869961 76.541877,8.44794156 85.6204875,2.63446498 C86.8094905,1.87332187 85.7073058,-0.0339492909 84.5101636,0.732625698 C75.4756405,6.52165879 66.4438305,12.8369059 56.8938241,17.7425784 C55.4898103,18.4636614 56.8368496,20.7436957 58.1228448,19.8474345" id="Fill-112" fill="#364953" sketch:type="MSShapeGroup" mask="url(#mask-4)"></path>
                    </g>
                    <path d="M57.2925775,20.1090477 C59.6827922,21.3298642 61.5955066,23.6648964 63.4458203,25.554514 C64.4964567,26.6273116 66.0266282,25.0384847 65.0736623,23.924948 C63.1989309,21.7352187 60.7748029,20.2142905 58.7684876,18.1943077 C57.4919882,16.9096665 55.7332406,19.3125973 57.2925775,20.1090477" id="Fill-115" fill="#364953" sketch:type="MSShapeGroup"></path>
                    <path d="M84.1442383,1.80902192 C83.0067837,11.9876983 81.5593609,22.201003 79.7741608,32.2853004 C79.5035321,33.8130185 81.8544072,34.456697 82.1040097,32.9283 C82.9050436,28.0267013 83.6775903,23.1169549 84.3077008,18.1902338 C84.9913944,12.8466154 85.2877973,7.38417447 86.5358095,2.13289815 C86.9393787,0.436791577 84.3443272,0.0192152987 84.1442383,1.80902192" id="Fill-117" fill="#364953" sketch:type="MSShapeGroup"></path>
                    <path d="M69.2997436,29.5768939 C73.043102,30.4602544 76.6216413,32.4999278 79.8705426,34.5056519 C81.2698085,35.3693219 82.57683,33.1307056 81.1578943,32.3016639 C77.6349729,30.2429789 73.9567283,28.9563008 70.2377876,27.3491414 C68.5712843,26.6280584 67.6332404,29.1837611 69.2997436,29.5768939" id="Fill-119" fill="#364953" sketch:type="MSShapeGroup"></path>
                    <path d="M64.9281739,25.3210107 C69.6265329,20.5796528 74.553468,16.0548913 79.3603498,11.424208 C79.862946,10.9400911 79.1005734,10.179627 78.5959423,10.658991 C73.7544689,15.255046 69.0133791,19.9760344 64.0674525,24.4593777 C63.4875338,24.9842338 64.3733511,25.881174 64.9281739,25.3210107" id="Fill-121" fill="#364953" sketch:type="MSShapeGroup"></path>
                    <path d="M69.6493227,28.0742982 C72.5421336,22.2954499 76.0209676,16.8180713 79.4468968,11.3474826 C79.8097699,10.7669497 78.9076741,10.2495625 78.5353052,10.8137997 C74.969653,16.2171689 71.8638661,21.8758367 68.5980081,27.4591371 C68.1985085,28.1415178 69.3000149,28.7716167 69.6493227,28.0742982" id="Fill-123" fill="#364953" sketch:type="MSShapeGroup"></path>
                    <path d="M63.7658947,25.9132222 C65.4134065,28.5497241 66.2429277,31.7864495 67.6693242,34.5614645 C68.3252089,35.8386369 70.1463571,34.7183103 69.5691515,33.4499648 C68.3265654,30.7211208 66.7428108,27.8809231 65.9912904,24.9741848 C65.5463469,23.2522768 62.8176768,24.3956889 63.7658947,25.9132222" id="Fill-125" fill="#364953" sketch:type="MSShapeGroup"></path>
                    <path d="M68.5147168,28.6410477 C68.5642304,30.2380223 68.4679164,31.8390709 68.4089071,33.4340086 C68.3872025,34.0145415 69.3510207,34.1686713 69.4425868,33.5738797 C69.6854065,31.9945587 69.4466564,30.3765355 69.7105024,28.8033253 C69.8610778,27.9043481 68.4875861,27.7773777 68.5147168,28.6410477" id="Fill-127" fill="#364953" sketch:type="MSShapeGroup"></path>
                    <path d="M69.8228235,34.8284418 C70.1741661,34.0292755 70.7913895,33.3305991 71.2994119,32.6237748 C71.81693,31.9033709 72.3439438,31.1897568 72.8458618,30.459168 C73.6896265,29.2308827 71.7328248,28.1472213 70.8748164,29.3062501 C70.3803594,29.9736932 69.9082852,30.6587899 69.4280718,31.3364177 C68.9526063,32.0086137 68.5158021,32.7928423 67.9101092,33.3509686 C66.5495046,34.6057344 69.1235297,36.4193055 69.8228235,34.8284418" id="Fill-129" fill="#364953" sketch:type="MSShapeGroup"></path>
                </g>
            </g>
        </g>
    </g>
</svg>