<svg width="43px" height="43px" viewBox="0 0 43 43" version="1.1" xmlns="http://www.w3.org/2000/svg" xmlns:xlink="http://www.w3.org/1999/xlink">
    <g id="Welcome" stroke="none" stroke-width="1" fill="none" fill-rule="evenodd">
        <g id="Homepage" transform="translate(-1002.000000, -711.000000)" fill="#FFFFFF">
            <g id="Header-featured" transform="translate(0.000000, 679.000000)">
                <g id="growth" transform="translate(1002.000000, 32.000000)">
                    <g id="Layer_1">
                        <g id="Group">
                            <path d="M10.7290448,41.5617676 L1.80893372,41.5617676 C2.03851852,40.8128789 2.17942105,39.7421621 1.78320078,38.5002012 C1.38404678,37.2503457 1.69594347,36.1674512 2.61788694,35.604168 C3.07563158,35.3239961 3.58274659,35.2530293 3.99623392,35.3591016 C3.6221423,36.0836348 3.27311306,37.2689902 4.00050877,38.5303516 C4.79948733,39.9185293 6.16417154,40.1263906 6.90665497,40.1263906 C7.27219688,40.1263906 7.52751462,40.076252 7.5554269,40.070457 C7.70781287,40.0389629 7.84511111,39.9593457 7.94812671,39.8432793 C8.01392593,39.7687012 9.55035867,37.9942793 8.39371735,35.9890684 C7.79792008,34.9556406 6.72216569,34.3636348 5.44180507,34.3636348 C5.36309747,34.3636348 5.29084405,34.3658184 5.22646979,34.3693457 C4.32095517,33.706457 2.99910331,33.6928516 1.87330799,34.3800957 C0.696717349,35.098918 -0.302508772,36.673457 0.4198577,38.9373398 C0.952035088,40.602834 0.15808577,41.8219512 0.126569201,41.8684785 C0.110810916,41.8907344 0.107961014,41.9171895 0.0958070175,41.940873 C0.0743489279,41.9795898 0.057165692,42.0197344 0.0435867446,42.0634062 C0.02782846,42.1121172 0.0185243665,42.1594004 0.0142495127,42.209623 C0.0114834308,42.2332227 0,42.2540508 0,42.2784062 C0,42.3006621 0.0107290448,42.3185508 0.0129083821,42.3400508 C0.0165126706,42.387334 0.0264873294,42.4317617 0.0400662768,42.4769453 C0.0543996101,42.5242285 0.0694035088,42.5686562 0.0922865497,42.6109844 C0.110894737,42.6460898 0.133023392,42.6769121 0.15808577,42.7084902 C0.192452242,42.7536738 0.22891423,42.7923066 0.272500975,42.828168 C0.286834308,42.838918 0.293959064,42.8553789 0.308962963,42.865457 C0.330421053,42.8804902 0.354729045,42.886957 0.377612086,42.8991348 C0.410553606,42.9170234 0.441231969,42.9342402 0.476352827,42.9471738 C0.537877193,42.9686738 0.600826511,42.9801797 0.664446394,42.9844629 C0.682300195,42.9858906 0.697387914,42.9952129 0.715241715,42.9952129 L10.7290448,42.9952129 C11.1238402,42.9952129 11.4442865,42.6741406 11.4442865,42.2785742 C11.4442865,41.8830078 11.1238402,41.5617676 10.7290448,41.5617676 L10.7290448,41.5617676 Z M5.39100975,35.797584 C5.91673294,35.7890176 6.70783236,35.9301953 7.15484795,36.705623 C7.63262573,37.5341289 7.25568421,38.3282012 7.02392008,38.6900898 C6.98745809,38.6915176 6.94881676,38.6929453 6.90665497,38.6929453 C6.37665692,38.6929453 5.65781092,38.5402617 5.23937817,37.8136289 C4.76227096,36.9865508 5.15069591,36.1717344 5.39100975,35.797584 L5.39100975,35.797584 Z" id="Shape"></path>
                            <path d="M23.6038986,41.5617676 L15.7359045,41.5617676 L15.7359045,38.6951289 L16.7373099,38.6951289 C16.819538,38.6951289 18.7650994,38.6793398 20.1040507,37.3384453 C21.4423314,35.9967949 21.4580897,34.0475176 21.4580897,33.9650449 L21.4580897,32.2450449 C21.4580897,31.8494785 21.1376433,31.5284062 20.742848,31.5284062 L19.0262008,31.5284062 C18.9439727,31.5284062 16.9984113,31.5441953 15.65946,32.8850898 C15.0007135,33.5458789 14.6630838,34.3521289 14.4892398,35.0121621 C14.3562164,34.8702285 14.2238635,34.733418 14.0958694,34.6050898 C13.4964678,34.0045176 13.007961,33.5136289 12.8984912,32.6328008 C13.7790273,32.0444062 15.7359883,30.3824395 15.7359883,27.2284062 C15.7359883,23.2480508 12.6124113,21.6376504 12.4793879,21.5702949 C12.278386,21.4699336 12.040922,21.4699336 11.8399201,21.5702949 C11.7068967,21.6376504 8.58331969,23.2480508 8.58331969,27.2284062 C8.58331969,30.4426562 10.6182339,32.1096621 11.4722827,32.6686621 C11.6089103,34.1241953 12.417193,34.9498457 13.0844893,35.6184453 C13.7668733,36.3021621 14.3054211,36.8417617 14.3054211,37.9784062 L14.3054211,41.5617676 L13.5901793,41.5617676 C13.195384,41.5617676 12.8749376,41.8828398 12.8749376,42.2784062 C12.8749376,42.6739727 13.195384,42.9950449 13.5901793,42.9950449 L23.6038986,42.9950449 C23.9994483,42.9950449 24.3191404,42.6739727 24.3191404,42.2784062 C24.3191404,41.8828398 23.9994483,41.5617676 23.6038986,41.5617676 L23.6038986,41.5617676 Z M15.7359045,36.2612617 C15.7359045,36.2469004 15.758117,34.8128672 16.6707563,33.8984453 C17.5833957,32.9840234 19.013963,32.9617676 19.026117,32.9617676 L20.0275224,32.9617676 L20.0275224,33.9622734 C20.0275224,33.9766348 20.0053099,35.410668 19.0926706,36.3250898 C18.1871559,37.232373 16.7715926,37.2610957 16.7351306,37.2617676 L15.7359045,37.2617676 L15.7359045,36.2612617 L15.7359045,36.2612617 Z M12.1602827,31.4065449 C11.4936569,30.9442949 10.0137193,29.6457285 10.0137193,27.2284062 C10.0137193,24.8025176 11.4878733,23.5117617 12.1581033,23.0502676 C12.824729,23.5125176 14.3053372,24.8104121 14.3053372,27.2284062 C14.3054211,29.6528672 12.832692,30.943623 12.1602827,31.4065449 L12.1602827,31.4065449 Z" id="Shape"></path>
                            <path d="M42.2009376,41.5617676 L32.9023762,41.5617676 L32.9023762,32.9617676 L34.3329435,32.9617676 C34.4331092,32.9617676 36.793499,32.943123 38.4150097,31.3184453 C40.0365205,29.6937676 40.0551287,27.3287676 40.0551287,27.2284063 L40.0551287,25.0784063 C40.0551287,24.6828398 39.7354366,24.3617676 39.3398869,24.3617676 L37.194078,24.3617676 C37.0939123,24.3617676 34.7335224,24.3804121 33.1120117,26.0050898 C33.0383333,26.079668 32.9703548,26.1570176 32.90246,26.2344512 L32.90246,20.0617676 C32.90246,19.6662012 32.582768,19.3451289 32.1872183,19.3451289 C31.7916686,19.3451289 31.4719766,19.6662012 31.4719766,20.0617676 L31.4719766,30.5344512 C31.4039981,30.4570176 31.3361033,30.379668 31.262425,30.3050898 C29.6409142,28.6804121 27.2805244,28.6617676 27.1803587,28.6617676 L25.0345497,28.6617676 C24.639,28.6617676 24.319308,28.9828398 24.319308,29.3784063 L24.319308,31.5284063 C24.319308,31.6287676 24.3379162,33.9937676 25.9594269,35.6184453 C27.5809376,37.243123 29.9413275,37.2617676 30.0414932,37.2617676 L31.4720604,37.2617676 L31.4720604,41.5617676 L30.7568187,41.5617676 C30.361269,41.5617676 30.041577,41.8828398 30.041577,42.2784063 C30.041577,42.6739727 30.361269,42.9950449 30.7568187,42.9950449 L42.2011053,42.9950449 C42.596655,42.9950449 42.916347,42.6739727 42.916347,42.2784063 C42.916347,41.8828398 42.5964873,41.5617676 42.2009376,41.5617676 L42.2009376,41.5617676 Z M32.9023762,30.0950449 C32.9023762,30.0764004 32.9167096,28.2274004 34.123308,27.0183613 C35.3185068,25.8208281 37.1774815,25.7950449 37.1939942,25.7950449 L38.6245614,25.7950449 L38.6245614,27.2284062 C38.6245614,27.2470508 38.6102281,29.0952949 37.4036296,30.3050898 C36.2169805,31.4940566 34.3758596,31.5277344 34.3315185,31.5284062 L32.9023762,31.5284062 L32.9023762,30.0950449 L32.9023762,30.0950449 Z M31.4718928,35.8284063 L30.0413255,35.8284063 C30.0234717,35.8284063 28.1773216,35.8140449 26.9706394,34.6050898 C25.7754405,33.4075566 25.7497076,31.5449512 25.7497076,31.5284063 L25.7497076,30.0950449 L27.1802749,30.0950449 C27.1981287,30.0950449 29.0435244,30.1086504 30.250961,31.3183613 C31.4461598,32.5158945 31.4718928,34.3785 31.4718928,34.3950449 L31.4718928,35.8284063 L31.4718928,35.8284063 Z" id="Shape"></path>
                            <path d="M27.8955166,15.7617676 C28.0786647,15.7617676 28.261729,15.6915566 28.4012066,15.5518066 L30.7451676,13.2032676 C31.1700546,13.4541289 31.6593158,13.6081563 32.1871345,13.6081563 C32.715037,13.6081563 33.2042144,13.4540449 33.6291014,13.2032676 L35.9730624,15.5518066 C36.11254,15.6915566 36.2956881,15.7617676 36.4787524,15.7617676 C36.6619006,15.7617676 36.8449649,15.6915566 36.9844425,15.5518066 C37.264152,15.2716348 37.264152,14.818623 36.9844425,14.5384512 L34.6419064,12.190668 C34.8937037,11.7635234 35.0481852,11.2718789 35.0481852,10.7416016 C35.0481852,10.2119961 34.8943743,9.72253516 34.6440858,9.29681836 L36.9844425,6.95189063 C37.264152,6.67163477 37.264152,6.21870703 36.9844425,5.93853516 C36.7047329,5.65836328 36.2526881,5.65836328 35.9730624,5.93853516 L33.6333762,8.28279102 C33.2078187,8.02983008 32.7171326,7.87504688 32.1871345,7.87504688 C31.6571365,7.87504688 31.1664503,8.02983008 30.7401384,8.28279102 L28.4012066,5.93853516 C28.1215809,5.65836328 27.6694522,5.65836328 27.3898265,5.93853516 C27.110117,6.21879102 27.110117,6.67171875 27.3898265,6.95189063 L29.7301832,9.29681836 C29.4798109,9.72253516 29.3260838,10.2119961 29.3260838,10.7416016 C29.3260838,11.2719629 29.4805653,11.7636074 29.7323626,12.190668 L27.3898265,14.5384512 C27.110117,14.818707 27.110117,15.2716348 27.3898265,15.5518066 C27.5293041,15.6914727 27.7123684,15.7617676 27.8955166,15.7617676 L27.8955166,15.7617676 Z M31.1636004,9.74319531 C31.1678752,9.73891211 31.173575,9.73815625 31.1779337,9.73387305 C31.182963,9.72883398 31.1836335,9.72312305 31.1879922,9.71808398 C31.4462437,9.46512305 31.7981228,9.30815625 32.1872183,9.30815625 C32.5763138,9.30815625 32.9282768,9.46512305 33.1857739,9.71808398 C33.1908031,9.72312305 33.1914737,9.72883398 33.1965029,9.73387305 C33.2007778,9.73815625 33.2065614,9.73891211 33.2108363,9.74319531 C33.4612086,10.0011953 33.6177856,10.3530898 33.6177856,10.7415176 C33.6177856,11.5319785 32.9762222,12.1748789 32.1872183,12.1748789 C31.3982982,12.1748789 30.7566511,11.5320625 30.7566511,10.7415176 C30.7565673,10.3530898 30.9132281,10.0011953 31.1636004,9.74319531 L31.1636004,9.74319531 Z" id="Shape"></path>
                            <path d="M27.8955166,41.5617676 L26.4649493,41.5617676 C26.0693996,41.5617676 25.7497076,41.8828398 25.7497076,42.2784063 C25.7497076,42.6739727 26.0693996,42.9950449 26.4649493,42.9950449 L27.8955166,42.9950449 C28.2910663,42.9950449 28.6107583,42.6739727 28.6107583,42.2784063 C28.6107583,41.8828398 28.2910663,41.5617676 27.8955166,41.5617676 L27.8955166,41.5617676 Z" id="Shape"></path>
                            <path d="M21.4673938,16.1351621 C21.3951404,17.425918 21.9480214,18.6707344 23.1103626,19.8353457 C25.3749454,22.1043516 27.9971072,22.0291016 30.4204464,19.6010293 C31.0949513,18.9259629 31.7336647,17.8402129 32.1871345,16.9658516 C32.6406043,17.839457 33.2793177,18.9259629 33.9538226,19.6010293 C35.204846,20.8537402 36.4944269,21.489418 37.7869415,21.489418 L37.7876959,21.489418 C38.998653,21.489418 40.1681189,20.9332734 41.2639064,19.8353457 C42.4262476,18.6707344 42.9791287,17.4251621 42.9068752,16.1330625 C42.8382261,14.9118457 42.2052125,13.6935684 41.0256881,12.5117402 C40.3526082,11.835918 39.269729,11.2038516 38.3978265,10.7566348 C39.2690585,10.2965684 40.352692,9.65014063 41.0256881,8.97499023 C42.2051287,7.79324609 42.8381423,6.57412891 42.9068752,5.35148438 C42.9791287,4.05787305 42.4262476,2.81162891 41.2639064,1.64701758 C39.0022573,-0.619804687 36.3793411,-0.540271484 33.9538226,1.88922852 C33.2793177,2.56429492 32.6406043,3.65080078 32.1871345,4.52440625 C31.7336647,3.65080078 31.0949513,2.56429492 30.4204464,1.88922852 C27.9956823,-0.540271484 25.3727661,-0.619132812 23.1103626,1.64701758 C21.9480214,2.81162891 21.3951404,4.05787305 21.4673938,5.35148438 C21.5360429,6.57412891 22.1690565,7.79316211 23.3485809,8.97499023 C24.0223314,9.6508125 25.1067193,10.2901016 25.9786218,10.7430293 C25.1067193,11.1981406 24.0223314,11.8402852 23.3485809,12.5153516 C22.1690565,13.6970117 21.5360429,14.915373 21.4673938,16.1351621 L21.4673938,16.1351621 Z M27.9212495,11.4007949 C28.1858713,11.2882559 28.3575361,11.0281562 28.3575361,10.7400059 C28.3567817,10.4519395 28.1844464,10.1925117 27.9190702,10.0806445 C27.8947622,10.0698945 25.4092281,9.01353906 24.3598772,7.9614668 C23.4371793,7.03629492 22.9436433,6.13111133 22.8956979,5.27035547 C22.8470819,4.40246094 23.2598148,3.52457227 24.1224133,2.66028906 C25.8368811,0.943900391 27.5485828,1.03989453 29.4089825,2.9025 C30.4590039,3.95524414 31.517575,6.44496094 31.5283041,6.47007227 C31.6398694,6.73521094 31.9002164,6.90721094 32.1870507,6.90721094 C32.4745556,6.90721094 32.734232,6.73521094 32.8457973,6.47007227 C33.1390858,5.77417773 34.0911209,3.77828906 34.9651189,2.9025 C36.824848,1.04056641 38.5371365,0.943144531 40.2516881,2.66096094 C41.1142865,3.52457227 41.5270195,4.40246094 41.4784035,5.27035547 C41.4304581,6.13111133 40.936922,7.03621094 40.0142242,7.9614668 C38.9627778,9.01572266 36.4736394,10.0992891 36.448577,10.1092832 C36.1846257,10.2239219 36.0151404,10.4855332 36.0165653,10.7735996 C36.0194152,11.061666 36.1939298,11.3204219 36.4600604,11.4301055 C36.4843684,11.4408555 38.9663821,12.4742832 40.0142242,13.5249277 C40.9376764,14.4494277 41.4304581,15.3546113 41.4784035,16.2138555 C41.5270195,17.0803223 41.1143704,17.9575391 40.2516881,18.8218223 C39.4348558,19.6410059 38.6058694,20.0558887 37.7876121,20.0558887 C36.8871267,20.0558887 35.9379415,19.5621445 34.9651189,18.5874219 C33.9150975,17.5353496 32.8557719,15.0449609 32.8457973,15.0198496 C32.734232,14.7547109 32.473885,14.5819551 32.1870507,14.5819551 C31.8995458,14.5819551 31.6398694,14.7547109 31.5283041,15.0198496 C31.2350156,15.7157441 30.2829805,17.7123887 29.4089825,18.5874219 C27.5514327,20.4485996 25.8376355,20.5410664 24.1224133,18.8217383 C23.2598148,17.9574551 22.8470819,17.0809941 22.8956979,16.2159551 C22.9436433,15.3573828 23.436425,14.4537109 24.3598772,13.5284551 C25.4099825,12.4757949 27.896271,11.4115449 27.9212495,11.4007949 L27.9212495,11.4007949 Z" id="Shape"></path>
                        </g>
                    </g>
                </g>
            </g>
        </g>
    </g>
</svg>