<svg width="47px" height="43px" viewBox="0 0 47 43" version="1.1" xmlns="http://www.w3.org/2000/svg" xmlns:xlink="http://www.w3.org/1999/xlink">
    <g id="Welcome" stroke="none" stroke-width="1" fill="none" fill-rule="evenodd">
        <g id="Homepage" transform="translate(-357.000000, -711.000000)" fill="#FFFFFF">
            <g id="Header-featured" transform="translate(0.000000, 679.000000)">
                <g id="pulse" transform="translate(357.000000, 32.000000)">
                    <g id="Capa_1">
                        <path d="M32.9090346,0 C29.4024082,0 26.0894665,1.2725566 23.5,3.59912028 C20.9105335,1.2725566 17.5974903,0 14.0909654,0 C6.32114471,0 0,6.31511792 0,14.0775307 C0,18.9846014 2.66590497,24.8330071 7.50670194,30.5454151 C11.959622,35.8001368 17.6723045,40.2770047 23.17973,42.8281014 C23.2812419,42.875158 23.3906717,42.8986863 23.5,42.8986863 C23.6093283,42.8986863 23.7186566,42.875158 23.82027,42.8281014 C29.3276955,40.2771061 35.040378,35.8002382 39.4932981,30.5454151 C44.334095,24.8329057 47,18.9845 47,14.0775307 C47,6.31511792 40.6788553,0 32.9090346,0 L32.9090346,0 Z M14.0909654,1.52122642 C17.4392333,1.52122642 20.589959,2.82238208 22.9625961,5.18494811 C23.2597214,5.48077594 23.7403801,5.48077594 24.0375054,5.18494811 C26.410041,2.82238208 29.5607667,1.52122642 32.9090346,1.52122642 C39.8392505,1.52122642 45.4773218,7.15392217 45.4773218,14.0775307 C45.4773218,15.7621368 45.1282225,17.577467 44.4555032,19.4716981 L34.8692289,19.4716981 C34.5124147,19.4716981 34.2034125,19.7192524 34.1260605,20.067309 L33.2236199,24.1236085 L30.7374924,13.5676156 C30.6569935,13.2259481 30.3529654,12.9836675 30.0016328,12.9812335 L29.9963542,12.9812335 C29.6472549,12.9812335 29.3425162,13.2186462 29.2577538,13.5573726 L27.7781166,19.4716981 L18.6274298,19.4716981 C18.2706156,19.4716981 17.9616134,19.7192524 17.8842613,20.067309 L16.9820238,24.1233042 L14.4959978,13.5676156 C14.4154989,13.2259481 14.1114708,12.9836675 13.7601382,12.9812335 L13.7547581,12.9812335 C13.4056587,12.9812335 13.1010216,13.2185448 13.0162592,13.5573726 L11.536216,19.4716981 L2.54449676,19.4716981 C1.87177754,17.577467 1.52267819,15.7620354 1.52267819,14.0775307 C1.52267819,7.15392217 7.16074946,1.52122642 14.0909654,1.52122642 L14.0909654,1.52122642 Z M38.3311901,29.5623986 C34.1660562,34.4775825 28.6456371,38.8416769 23.5,41.297342 C18.3543629,38.8416769 12.8340454,34.4775825 8.66880994,29.5623986 C6.21993737,26.6725755 4.35577322,23.7654104 3.14636069,20.9929245 L12.1306695,20.9929245 C12.4799719,20.9929245 12.7845076,20.7554104 12.86927,20.4167854 L13.7324255,16.9673538 L16.2621015,27.7084292 C16.343108,28.0522264 16.6500799,28.2948113 17.0031382,28.2948113 L17.0079093,28.2948113 C17.3629978,28.2925802 17.6693607,28.045533 17.7464082,27.6992005 L19.2382268,20.9929245 L28.3725702,20.9929245 C28.7218726,20.9929245 29.0264082,20.7554104 29.1111706,20.4167854 L29.9740216,16.9677594 L32.5035961,27.7084292 C32.5846026,28.0522264 32.8915745,28.2948113 33.2446328,28.2948113 L33.2494039,28.2948113 C33.6044924,28.2925802 33.9108553,28.045533 33.9879028,27.6992005 L35.4799244,20.9929245 L43.8536393,20.9929245 C42.6442268,23.7654104 40.7800626,26.6725755 38.3311901,29.5623986 L38.3311901,29.5623986 Z" id="Shape"></path>
                    </g>
                </g>
            </g>
        </g>
    </g>
</svg>