<svg width="42px" height="43px" viewBox="0 0 42 43" version="1.1" xmlns="http://www.w3.org/2000/svg" xmlns:xlink="http://www.w3.org/1999/xlink">
    <g id="Welcome" stroke="none" stroke-width="1" fill="none" fill-rule="evenodd">
        <g id="Homepage" transform="translate(-665.000000, -711.000000)" fill="#FFFFFF">
            <g id="Header-featured" transform="translate(0.000000, 679.000000)">
                <g id="cosmetics" transform="translate(665.000000, 32.000000)">
                    <g id="Capa_1">
                        <g id="Group">
                            <path d="M11.5724621,19.8152513 L11.1027191,19.8152513 L11.1027191,16.0011294 C11.1027191,15.5490838 10.7368427,15.1826015 10.2853009,15.1826015 L10.2151119,15.1826015 L10.2151119,7.37930203 C10.2151119,7.06935279 10.0402934,6.78592386 9.76324315,6.64721066 L3.43751606,3.4791802 C3.18422541,3.35236294 2.88330651,3.3657868 2.64222263,3.51497716 C2.40113876,3.66405838 2.25443943,3.92751523 2.25443943,4.21127157 L2.25443943,15.1826015 L2.18425046,15.1826015 C1.73270864,15.1826015 1.36683224,15.5490838 1.36683224,16.0011294 L1.36683224,19.8152513 L0.896326319,19.8152513 C0.444784497,19.8152513 0.0789081049,20.1817335 0.0789081049,20.6337792 L0.0789081049,42.1194822 C0.0789081049,42.5715279 0.444784497,42.9380102 0.896326319,42.9380102 L11.5722441,42.9380102 C12.023786,42.9380102 12.3896624,42.5715279 12.3896624,42.1194822 L12.3896624,20.6337792 C12.3898803,20.1817335 12.0240039,19.8152513 11.5724621,19.8152513 L11.5724621,19.8152513 Z M3.88949384,5.53586802 L8.5803845,7.88515228 L8.5803845,15.1826015 L3.88949384,15.1826015 L3.88949384,5.53586802 L3.88949384,5.53586802 Z M3.00199564,16.8196574 L9.46799169,16.8196574 L9.46799169,19.8152513 L3.00199564,19.8152513 L3.00199564,16.8196574 L3.00199564,16.8196574 Z M10.7550439,41.3009543 L1.71396251,41.3009543 L1.71396251,21.4523071 L10.7550439,21.4523071 L10.7550439,41.3009543 L10.7550439,41.3009543 Z" id="Shape"></path>
                            <path d="M40.2393189,33.2077868 L13.6891393,33.2077868 C13.2375975,33.2077868 12.8717211,33.574269 12.8717211,34.0263147 C12.8717211,34.4783604 13.2375975,34.8448426 13.6891393,34.8448426 L38.938752,34.8448426 L38.7518357,35.2339162 C37.7250495,37.3703832 35.5316439,38.750967 33.1638558,38.750967 L13.6891393,38.750967 C13.2375975,38.750967 12.8717211,39.1174492 12.8717211,39.5694949 C12.8717211,40.0215406 13.2375975,40.3880228 13.6891393,40.3880228 L33.1638558,40.3880228 C36.1559335,40.3880228 38.9276351,38.6435761 40.2249323,35.9437437 L40.9758672,34.3812284 C41.097826,34.1275939 41.0810417,33.8289949 40.9313996,33.5907487 C40.7817576,33.3525025 40.5204018,33.2077868 40.2393189,33.2077868 L40.2393189,33.2077868 Z" id="Shape"></path>
                            <path d="M11.8017752,6.01879949 C14.8496552,3.19324112 18.8172943,1.63705584 22.9740294,1.63705584 C32.0434479,1.63705584 39.4220097,9.02563452 39.4220097,18.1073655 C39.4220097,23.0035812 37.2674042,27.6138579 33.5108771,30.7560228 C33.1642918,31.0458909 33.1180804,31.562 33.4075554,31.9089467 C33.5691863,32.1027741 33.801333,32.2027437 34.0353326,32.2027437 C34.2200691,32.2027437 34.4060045,32.1403173 34.5589162,32.0124086 C38.688622,28.5583299 41.0569551,23.4901142 41.0569551,18.1072563 C41.0568461,8.12296193 32.9448967,0 22.9740294,0 C18.4042256,0 14.042155,1.71094162 10.6910673,4.81763706 C10.3598495,5.12474873 10.3399045,5.64260406 10.6465998,5.97438071 C10.9531861,6.30593909 11.4703393,6.32591117 11.8017752,6.01879949 L11.8017752,6.01879949 Z" id="Shape"></path>
                            <path d="M22.9735934,5.04147716 C30.1686175,5.04147716 36.0222038,10.9030102 36.0222038,18.107802 C36.0222038,25.3125939 30.1686175,31.1741269 22.9735934,31.1741269 C19.738906,31.1741269 16.6362045,29.9803858 14.2367006,27.813033 C13.9016681,27.5102868 13.3847328,27.5368071 13.0821791,27.8725127 C12.7798433,28.2081091 12.8064367,28.7257462 13.1416871,29.0284924 C15.8420009,31.4678147 19.3336846,32.8111827 22.9735934,32.8111827 C31.0700663,32.8111827 37.6570403,26.2152665 37.6570403,18.107802 C37.6570403,10.0003376 31.0700663,3.40442132 22.9735934,3.40442132 C18.3235737,3.40442132 13.8999243,5.64609645 11.1404294,9.40095685 C10.8727521,9.76503807 10.9506793,10.2774365 11.314267,10.545368 C11.6778546,10.8131904 12.1893404,10.7353756 12.4571266,10.3712944 C14.9098172,7.03399239 18.8412719,5.04147716 22.9735934,5.04147716 L22.9735934,5.04147716 Z" id="Shape"></path>
                            <path d="M31.9661747,11.6595482 L17.0490552,26.5969188 C16.7298261,26.9165812 16.7298261,27.4348731 17.0490552,27.7544264 C17.2087242,27.914203 17.4179833,27.9942005 17.6271333,27.9942005 C17.8362834,27.9942005 18.0455425,27.9143122 18.2052115,27.7544264 L33.122222,12.8170558 C33.441451,12.4973934 33.441451,11.9791015 33.122222,11.6595482 C32.8028839,11.3398858 32.2854037,11.3398858 31.9661747,11.6595482 L31.9661747,11.6595482 Z" id="Shape"></path>
                            <path d="M21.5915027,26.6979797 C21.2722736,27.0176421 21.2722736,27.535934 21.5915027,27.8554873 C21.7511717,28.015264 21.9604308,28.0952614 22.1695808,28.0952614 C22.3787309,28.0952614 22.58799,28.0153731 22.747659,27.8554873 L33.9473784,16.6405635 C34.2666075,16.320901 34.2666075,15.8026091 33.9473784,15.4830558 C33.6280404,15.1633934 33.1105602,15.1633934 32.7913311,15.4830558 L21.5915027,26.6979797 L21.5915027,26.6979797 Z" id="Shape"></path>
                        </g>
                    </g>
                </g>
            </g>
        </g>
    </g>
</svg>