<svg width="42px" height="43px" viewBox="0 0 42 43" version="1.1" xmlns="http://www.w3.org/2000/svg" xmlns:xlink="http://www.w3.org/1999/xlink">
    <g id="Welcome" stroke="none" stroke-width="1" fill="none" fill-rule="evenodd">
        <g id="Homepage" transform="translate(-820.000000, -711.000000)" fill="#FFFFFF">
            <g id="Header-featured" transform="translate(0.000000, 679.000000)">
                <g id="rich" transform="translate(820.000000, 32.000000)">
                    <g id="Capa_1">
                        <g id="Group">
                            <path d="M11.6580442,7.77383607 C11.9441183,8.60422951 12.7151827,9.16252459 13.5769192,9.16252459 L18.8000548,9.16252459 C19.6617913,9.16252459 20.4328558,8.60422951 20.7189298,7.77383607 C20.991649,6.98009836 21.8484654,5.20440984 22.5133942,4.64047541 C23.0960856,4.14491803 23.3695077,3.3772623 23.2261192,2.63709836 C23.0855423,1.90891803 22.5787625,1.33370492 21.8709577,1.09896721 C19.761601,0.39757377 17.8905221,0.633721311 16.4601519,1.78062295 C16.203599,1.98645902 15.8591856,1.98645902 15.6026327,1.78062295 C14.1722625,0.63442623 12.3025894,0.398278689 10.1918269,1.09967213 C9.48402212,1.33440984 8.97653942,1.90891803 8.8359625,2.63780328 C8.69257404,3.37796721 8.96599615,4.14562295 9.5486875,4.64118033 C10.3014769,5.27983607 11.4542077,7.18170492 11.6580442,7.77383607 L11.6580442,7.77383607 Z M10.2164279,2.90637705 C10.2417317,2.77455738 10.3302952,2.53911475 10.6339413,2.43831148 C11.287624,2.22119672 11.897025,2.11334426 12.4607385,2.11334426 C13.3280981,2.11334426 14.0858077,2.36993443 14.7247298,2.88240984 C15.4943885,3.50062295 16.5698019,3.49921311 17.3380548,2.88240984 C18.3930846,2.0365082 19.7686298,1.88706557 21.4288433,2.43831148 C21.7324894,2.53911475 21.82035,2.7752623 21.8456538,2.90637705 C21.8927471,3.15098361 21.8027779,3.397 21.6045644,3.56547541 C20.5305567,4.47763934 19.5704163,6.79118033 19.3904779,7.31493443 C19.3005087,7.57716393 19.0629337,7.75339344 18.8007577,7.75339344 L13.5776221,7.75339344 C13.3147433,7.75339344 13.0778712,7.57716393 12.9879019,7.31493443 C12.694799,6.46339344 11.3909481,4.3585082 10.4582202,3.56547541 C10.2593038,3.39629508 10.1686317,3.15027869 10.2164279,2.90637705 L10.2164279,2.90637705 Z" id="Shape"></path>
                            <path d="M22.1633577,10.5723607 C22.1633577,10.1832459 21.8484654,9.86744262 21.4604731,9.86744262 C21.3297365,9.86744262 21.2137606,9.9132623 21.1090308,9.97529508 C21.004301,9.91255738 20.888325,9.86744262 20.7575885,9.86744262 L12.3229731,9.86744262 C11.9349808,9.86744262 11.6200885,10.1832459 11.6200885,10.5723607 C11.6200885,10.9614754 11.9349808,11.2772787 12.3229731,11.2772787 L20.7575885,11.2772787 L20.7575885,11.9821967 L13.0258577,11.9821967 C12.6378654,11.9821967 12.3229731,12.298 12.3229731,12.6871148 C12.3229731,13.0762295 12.6378654,13.3920328 13.0258577,13.3920328 L21.4077567,13.3920328 C22.0375413,13.9179016 22.813526,14.2189016 23.6422269,14.2189016 C24.5805779,14.2189016 25.463401,13.8516393 26.1276269,13.1854918 C26.4024548,12.9098689 26.4024548,12.4643607 26.1276269,12.1887377 C25.852799,11.9131148 25.408576,11.9131148 25.1337481,12.1887377 C24.3394885,12.9852951 22.9632404,12.9874098 22.1633577,12.1986066 L22.1633577,10.5723607 L22.1633577,10.5723607 Z" id="Shape"></path>
                            <path d="M15.1345115,19.031377 C10.6283183,19.031377 5.29412692,24.7630656 5.29412692,29.6051475 C5.29412692,29.9942623 5.60901923,30.3100656 5.99701154,30.3100656 C6.38500385,30.3100656 6.69989615,29.9942623 6.69989615,29.6051475 C6.69989615,25.5800656 11.4296067,20.4412131 15.1345115,20.4412131 C15.5225038,20.4412131 15.8373962,20.1254098 15.8373962,19.7362951 C15.8373962,19.3471803 15.5225038,19.031377 15.1345115,19.031377 L15.1345115,19.031377 Z" id="Shape"></path>
                            <path d="M34.8152808,23.2608852 C34.0906067,23.2608852 33.2274644,23.3031803 32.3572933,23.4025738 C31.4105077,21.6642459 30.1621846,20.1691148 28.5863173,18.9587705 L23.5241423,15.5081967 C22.6870067,14.8639016 21.3676923,14.0969508 19.8368096,14.0969508 L14.370476,14.0969508 C13.018126,14.0969508 11.6882683,14.5586721 10.6451875,15.3813115 L5.67017019,19.0165738 C0.484990385,23.1050984 -1.15624519,30.2698852 1.76845769,36.0530328 C2.832625,38.1572131 4.61022019,40.6998525 7.04079519,40.8648033 C7.23127692,40.8774918 7.42386731,40.884541 7.61786346,40.884541 L21.2952952,40.884541 C22.3271298,42.1717213 23.9065115,42.9992951 25.6777808,42.9992951 C27.7147404,42.9992951 29.4972558,41.9031475 30.4841058,40.2719672 C31.7401606,40.6631967 33.2801808,40.884541 34.8152808,40.884541 C38.1954529,40.884541 41.8441269,39.8067213 41.8441269,38.0648689 L41.8441269,34.1878197 L41.788599,34.1878197 C41.8223375,34.073623 41.8441269,33.9566066 41.8441269,33.8353607 L41.8441269,29.6058525 L41.8441269,25.7288033 C41.8441269,23.7804098 37.4257942,23.2608852 34.8152808,23.2608852 L34.8152808,23.2608852 Z M40.3849385,25.7217541 C40.3701779,25.7365574 40.3582288,25.7513607 40.3378452,25.7675738 C40.3104327,25.7894262 40.2773971,25.8126885 40.2401442,25.8366557 C40.1937538,25.8662623 40.1375231,25.8972787 40.0763721,25.9282951 C40.0264673,25.9536721 39.9744538,25.9797541 39.9147087,26.0058361 C39.8409058,26.0389672 39.7537481,26.0720984 39.6644817,26.1059344 C39.5927875,26.1327213 39.5203904,26.1595082 39.4388558,26.187 C39.3362346,26.2208361 39.21815,26.2546721 39.0993625,26.2878033 C39.0065817,26.3138852 38.9152067,26.3406721 38.8125856,26.3660492 C38.6790375,26.3991803 38.5286202,26.4294918 38.3789058,26.4598033 C38.2657413,26.4830656 38.1582,26.5070328 38.0358981,26.5288852 C37.8672058,26.5584918 37.6788327,26.5838689 37.4925683,26.6092459 C37.3653462,26.6268689 37.2465587,26.6466066 37.1109019,26.6621148 C36.8894933,26.6874918 36.6455923,26.7051148 36.4023942,26.7227377 C36.2786865,26.7319016 36.166225,26.7445902 36.0368942,26.7523443 C35.6531192,26.7734918 35.2468519,26.7861803 34.8131721,26.7861803 C34.3794923,26.7861803 33.973225,26.7734918 33.58945,26.7523443 C33.4601192,26.7452951 33.3476577,26.7326066 33.22395,26.7227377 C32.9807519,26.7044098 32.736851,26.6867869 32.5154423,26.6621148 C32.3797856,26.6466066 32.2609981,26.6268689 32.133776,26.6092459 C31.9475115,26.5838689 31.7591385,26.5584918 31.5904462,26.5288852 C31.4681442,26.5070328 31.3606029,26.4830656 31.2474385,26.4598033 C31.097724,26.4287869 30.9473067,26.3984754 30.8137587,26.3660492 C30.7111375,26.3406721 30.6204654,26.3145902 30.5269817,26.2878033 C30.4081942,26.2546721 30.2908125,26.2208361 30.1874885,26.187 C30.1059538,26.1602131 30.0335567,26.1327213 29.9618625,26.1059344 C29.8725962,26.0720984 29.7854385,26.0389672 29.7116356,26.0058361 C29.6518904,25.9797541 29.5998769,25.9536721 29.5499721,25.9282951 C29.4888212,25.8965738 29.4325904,25.8655574 29.3862,25.8366557 C29.3489471,25.8126885 29.3159115,25.7901311 29.288499,25.7675738 C29.2695212,25.7527705 29.2589779,25.739377 29.2449202,25.7252787 C29.2533548,25.7182295 29.2589779,25.7111803 29.2688183,25.7034262 C29.294825,25.6815738 29.3320779,25.6569016 29.3686279,25.6329344 C29.4255615,25.5955738 29.4965529,25.5560984 29.5801962,25.5138033 C29.6258837,25.490541 29.6708683,25.4679836 29.7242875,25.4447213 C29.7798154,25.4200492 29.8437779,25.395377 29.9077404,25.37 C29.9836519,25.3403934 30.0665923,25.3107869 30.1544529,25.2811803 C30.2177125,25.2600328 30.2788635,25.2381803 30.3491519,25.2170328 C30.5065981,25.1690984 30.6788048,25.1218689 30.8678808,25.0760492 C30.9550385,25.0549016 31.0562538,25.0358689 31.1511433,25.0161311 C31.2657135,24.991459 31.3830952,24.9674918 31.5075058,24.9449344 C31.6445683,24.9202623 31.7900654,24.897 31.9404827,24.8744426 C32.7326337,24.7546066 33.680825,24.6714262 34.8117663,24.6714262 C38.133599,24.6707213 39.9913231,25.3580164 40.3849385,25.7217541 L40.3849385,25.7217541 Z M29.666651,31.5211148 C29.7299106,31.5479016 29.7952788,31.5732787 29.86135,31.5993607 C29.9836519,31.6472951 30.1087654,31.6924098 30.2380962,31.7368197 C30.306276,31.760082 30.37305,31.7826393 30.4426356,31.8044918 C30.5909442,31.8510164 30.7434702,31.8940164 30.8995106,31.9356066 C30.9543356,31.9504098 31.0070519,31.966623 31.0625798,31.9800164 C31.2755538,32.0335902 31.4934481,32.0829344 31.7169654,32.1266393 C31.7633558,32.1358033 31.8118548,32.1428525 31.8589481,32.1520164 C32.0381837,32.1858525 32.2195279,32.2168689 32.4036837,32.2443607 C32.4824067,32.2563443 32.5618327,32.2662131 32.6412587,32.2767869 C32.7994077,32.2979344 32.9582596,32.3169672 33.1192202,32.3338852 C33.2035663,32.3423443 33.2879125,32.3508033 33.3722587,32.3585574 C33.5381394,32.3733607 33.7047231,32.3846393 33.8720096,32.3945082 C33.9465154,32.3987377 34.0210212,32.404377 34.0955269,32.4079016 C34.3359135,32.4184754 34.5755971,32.4255246 34.8145779,32.4255246 C35.0535587,32.4255246 35.2932423,32.4184754 35.5336288,32.4079016 C35.6095404,32.404377 35.6854519,32.3987377 35.7613635,32.3945082 C35.9265413,32.3846393 36.0917192,32.3733607 36.2561942,32.3592623 C36.342649,32.3515082 36.4291038,32.3430492 36.5148558,32.3338852 C36.6730048,32.3176721 36.8297481,32.2986393 36.9857885,32.2774918 C37.0673231,32.266918 37.1488577,32.2563443 37.2296894,32.2443607 C37.4110337,32.2175738 37.5895663,32.1865574 37.7659904,32.1534262 C37.8158952,32.1442623 37.8665029,32.1365082 37.9164077,32.1266393 C38.1385192,32.0822295 38.3557106,32.0335902 38.5672788,31.9807213 C38.6263212,31.965918 38.6825519,31.949 38.7408913,31.9334918 C38.8934173,31.8926066 39.0431317,31.8503115 39.187926,31.8044918 C39.2589173,31.7819344 39.3270971,31.7586721 39.3959798,31.7354098 C39.5246077,31.6917049 39.6497212,31.6458852 39.7713202,31.5986557 C39.8366885,31.5732787 39.9020567,31.5471967 39.9653163,31.5204098 C40.0918356,31.4668361 40.2120288,31.4104426 40.3280048,31.3526393 C40.3645548,31.3343115 40.406025,31.3188033 40.4411692,31.3004754 L40.4453865,33.7846066 C40.2802087,34.1857049 38.4639548,35.079541 35.5982942,35.2226393 C35.3410385,35.2318033 35.0922173,35.2444918 34.8145779,35.2444918 C33.2661231,35.2444918 31.7366462,35.0062295 30.5684519,34.5875082 C30.5642346,34.580459 30.5593144,34.5734098 30.5550971,34.5663607 C30.4721567,34.4211475 30.3842962,34.279459 30.2894067,34.1427049 C30.275349,34.1222623 30.2591827,34.1032295 30.2444221,34.0827869 C30.1565615,33.9594262 30.0658894,33.8388852 29.9681885,33.7232787 C29.9386673,33.6887377 29.9070375,33.6570164 29.8768135,33.6224754 C29.7903587,33.5244918 29.703201,33.427918 29.6104202,33.3362787 C29.562624,33.2890492 29.5113135,33.2467541 29.4621115,33.2009344 C29.3805769,33.1262131 29.3004481,33.0514918 29.215399,32.9817049 C29.2069644,32.9746557 29.1999356,32.9669016 29.191501,32.9605574 C29.191501,32.6849344 29.1922038,32.0723607 29.1929067,31.3018852 C29.2287538,31.320918 29.2716298,31.3371311 29.3081798,31.355459 C29.4241558,31.4125574 29.5422404,31.4682459 29.666651,31.5211148 L29.666651,31.5211148 Z M20.3808423,39.474 L7.61786346,39.474 C7.45549712,39.474 7.29383365,39.4683607 7.13427885,39.4577869 C5.75311058,39.3640328 4.29251635,37.9281148 3.02170096,35.415082 C0.399238462,30.2297049 1.87881058,23.7987377 6.51784904,20.1402131 L11.4928663,16.5049508 C12.3096183,15.8613607 13.3316125,15.5067869 14.3697731,15.5067869 L19.8361067,15.5067869 C20.9726712,15.5067869 22.0031,16.1158361 22.7010644,16.6508689 L27.7632394,20.1007377 C29.0207,21.0678852 30.068701,22.2507377 30.8875615,23.6260328 C29.9977096,23.8100164 29.1373788,24.0905738 28.5462529,24.5022459 C28.5300865,24.5135246 28.5139202,24.5248033 28.4977538,24.536082 C28.4084875,24.6009344 28.3269529,24.6693115 28.2524471,24.7412131 C28.2208173,24.7715246 28.1927019,24.802541 28.1638837,24.8342623 C28.1083558,24.8955902 28.0549365,24.957623 28.0113577,25.0238852 C27.9748077,25.0781639 27.9480981,25.1366721 27.9199827,25.1944754 C27.8953817,25.2466393 27.8658606,25.2966885 27.8482885,25.3516721 C27.8096298,25.4708033 27.7857317,25.5955738 27.7857317,25.7280984 L27.7857317,29.6051475 L27.7857317,32.1350984 C27.5488596,32.0385246 27.3035529,31.9609836 27.0519202,31.897541 C27.0188846,31.889082 26.985849,31.879918 26.9528135,31.8721639 C26.7068038,31.8143607 26.455874,31.7706557 26.1993212,31.7466885 C26.1705029,31.7438689 26.1416846,31.7445738 26.1128663,31.742459 C25.968775,31.7311803 25.8239808,31.7206066 25.6770779,31.7206066 C25.5997606,31.7206066 25.5252548,31.7290656 25.4486404,31.7318852 C25.3888952,31.734 25.32915,31.7368197 25.2694048,31.7410492 C25.0191779,31.759377 24.7717625,31.7882787 24.531376,31.8383279 C24.5264558,31.8390328 24.5222385,31.8390328 24.5173183,31.8404426 C24.4983404,31.8446721 24.4807683,31.8524262 24.4617904,31.8566557 C24.2417875,31.9052951 24.0274077,31.9694426 23.8179481,32.0441639 C23.7420365,32.0709508 23.666125,32.0977377 23.5916192,32.1273443 C23.3828625,32.2112295 23.179026,32.3042787 22.9829212,32.4121311 C22.9091183,32.4523115 22.8402356,32.4988361 22.7685413,32.542541 C22.6314788,32.6264262 22.4979308,32.714541 22.3693029,32.8097049 C22.2933913,32.8653934 22.2167769,32.9196721 22.1436769,32.9788852 C21.978499,33.1128197 21.8210529,33.255918 21.6720413,33.4081803 C21.6066731,33.4744426 21.5469279,33.5449344 21.485074,33.6147213 C21.3796413,33.7331475 21.2791288,33.8565082 21.1842394,33.9833934 C21.1329288,34.0524754 21.0788067,34.1180328 21.0303077,34.1892295 C20.9066,34.3703934 20.7962471,34.5607213 20.6943288,34.7559836 C20.6549673,34.8321148 20.6191202,34.9096557 20.5825702,34.9879016 C20.5024413,35.1606066 20.4307471,35.3368361 20.3681904,35.5187049 C20.3499154,35.5715738 20.3274231,35.621623 20.3112567,35.6751967 C20.2388596,35.9064098 20.1861433,36.146082 20.1439702,36.3885738 C20.1383471,36.4195902 20.127101,36.4491967 20.1221808,36.4802131 C20.1165577,36.5182787 20.1165577,36.5591639 20.1116375,36.5972295 C20.0891452,36.7628852 20.0750875,36.9306557 20.0673558,37.100541 C20.0645442,37.1611639 20.0589212,37.221082 20.0582183,37.2824098 C20.0582183,37.3084918 20.054001,37.3338689 20.054001,37.3599508 C20.054001,37.4720328 20.0645442,37.5812951 20.0708702,37.6912623 C20.0982827,38.3003115 20.1973894,38.9121803 20.3808423,39.474 L20.3808423,39.474 Z M25.6777808,41.5887541 C23.3688048,41.5887541 21.4899942,39.7179016 21.4632846,37.4092951 C21.4632846,37.3543115 21.4646904,37.3000328 21.466799,37.2450492 C21.4689077,37.1675082 21.4724221,37.0906721 21.4787481,37.0138361 C21.4836683,36.9489836 21.4914,36.8848361 21.4991317,36.8206885 C21.5075663,36.7551311 21.5174067,36.6902787 21.5286529,36.6261311 C21.5602827,36.4428525 21.60105,36.2616885 21.6565779,36.0861639 C21.662201,36.0671311 21.6706356,36.0495082 21.6769615,36.0311803 C21.7360038,35.8542459 21.8069952,35.681541 21.8892327,35.5144754 C21.8969644,35.4982623 21.9046962,35.4820492 21.9124279,35.466541 C22.2912827,34.7207377 22.8894375,34.090541 23.6141115,33.6753443 C23.6169231,33.6739344 23.6190317,33.6718197 23.6218433,33.6704098 C23.7863183,33.5766557 23.9592279,33.4977049 24.134949,33.4272131 C24.1806365,33.4088852 24.2270269,33.3926721 24.2727144,33.376459 C24.4287548,33.3207705 24.5876067,33.2721311 24.7513788,33.2361803 C24.7738712,33.2312459 24.7949577,33.2234918 24.81745,33.2192623 C25.0205837,33.1776721 25.2244202,33.1551148 25.4275538,33.1431311 C25.4662125,33.1410164 25.5048712,33.1381967 25.5442327,33.1374918 C25.7515837,33.1311475 25.9582317,33.1367869 26.1620683,33.1607541 C26.1740173,33.1621639 26.1852635,33.1642787 26.1965096,33.1663934 C26.4115923,33.1931803 26.6245663,33.2361803 26.834026,33.2968033 C26.8368375,33.2975082 26.8403519,33.2982131 26.8431635,33.298918 C27.058949,33.3616557 27.2705173,33.4427213 27.4771654,33.5407049 C27.6669442,33.6309344 27.8518029,33.7317377 28.0247125,33.8480492 L28.0528279,33.8677869 C28.0774288,33.8847049 28.0999212,33.9037377 28.1238192,33.9206557 C28.2404981,34.004541 28.3522567,34.0933607 28.4597981,34.1885246 C28.4858048,34.211082 28.5111087,34.2350492 28.5364125,34.2583115 C28.6439538,34.3584098 28.746575,34.4627377 28.8428702,34.5727049 C28.8527106,34.5839836 28.862551,34.5938525 28.8723913,34.6051311 C29.0959087,34.8659508 29.288499,35.1542623 29.4431337,35.4637213 C29.4789808,35.5342131 29.5148279,35.6054098 29.5464577,35.6780164 C29.5998769,35.801377 29.6462673,35.9261475 29.6877375,36.0523279 C29.690549,36.0614918 29.6947663,36.0706557 29.6975779,36.0798197 C29.7383452,36.2074098 29.7713808,36.3371148 29.7994962,36.4675246 C29.8016048,36.4780984 29.8051192,36.4879672 29.8072279,36.4978361 C29.8339375,36.627541 29.8536183,36.7586557 29.8683788,36.8904754 C29.8697846,36.902459 29.8725962,36.9130328 29.8740019,36.9250164 C29.8887625,37.0688197 29.8964942,37.2133279 29.8964942,37.3592459 C29.8964942,37.5086885 29.8880596,37.6574262 29.8725962,37.805459 C29.8704875,37.8273115 29.8655673,37.8477541 29.8627558,37.8696066 C29.8472923,37.9971967 29.8283144,38.124082 29.8009019,38.2488525 C29.7980904,38.2629508 29.7931702,38.2763443 29.7903587,38.2904426 C29.7601346,38.424377 29.7242875,38.5569016 29.6807087,38.6880164 C29.6786,38.6936557 29.6764913,38.6992951 29.6743827,38.7049344 C29.6279923,38.8416885 29.5745731,38.9763279 29.514125,39.1095574 C28.8470875,40.5694426 27.3801673,41.5887541 25.6777808,41.5887541 L25.6777808,41.5887541 Z M34.8152808,39.474 C33.4812058,39.474 32.1534567,39.2956557 31.0625798,38.9763279 C31.0632827,38.974918 31.0632827,38.9735082 31.0632827,38.9720984 C31.1314625,38.7437049 31.1813673,38.5082623 31.2207288,38.2685902 C31.2298663,38.2114918 31.2390038,38.1550984 31.2467356,38.0972951 C31.2783654,37.8548033 31.3008577,37.6101967 31.3008577,37.3592459 C31.3008577,37.1766721 31.2910173,36.9955082 31.2734452,36.8157541 C31.2671192,36.7509016 31.2558731,36.6881639 31.2474385,36.6240164 C31.2354894,36.533082 31.2270548,36.4414426 31.2108885,36.351918 C32.2771644,36.5492951 33.5156471,36.6543279 34.8152808,36.6543279 C36.495175,36.6543279 38.9236413,36.4393279 40.4411692,35.7668361 L40.4453865,38.0141148 C40.2654481,38.450459 38.1321933,39.474 34.8152808,39.474 L34.8152808,39.474 Z M34.8152808,31.0149836 C31.5096144,31.0149836 29.3812798,29.9991967 29.1957183,29.609377 C29.1964212,28.8057705 29.197124,27.9901803 29.197124,27.3106393 C29.2146962,27.3183934 29.2357827,27.3247377 29.2540577,27.3324918 C29.4220471,27.4043934 29.5977683,27.4720656 29.7847356,27.5340984 C29.794576,27.537623 29.8044163,27.5411475 29.8149596,27.5439672 C30.0061442,27.606 30.2078721,27.6616885 30.4138173,27.7131475 C30.4812942,27.7300656 30.5508798,27.7455738 30.6197625,27.761082 C30.7701798,27.795623 30.9220029,27.8287541 31.0773404,27.8583607 C31.152549,27.8731639 31.2270548,27.8872623 31.3029663,27.9006557 C31.4737673,27.9309672 31.6452712,27.9577541 31.8188837,27.9831311 C31.8737087,27.9908852 31.9278308,28.0000492 31.9826558,28.0078033 C32.2096875,28.0381148 32.4367192,28.0649016 32.6623452,28.0867541 C32.7192788,28.0923934 32.7748067,28.096623 32.8317404,28.1015574 C33.0053529,28.1170656 33.1768567,28.1311639 33.3469548,28.1424426 C33.4207577,28.147377 33.4924519,28.1516066 33.564849,28.1558361 C33.7222952,28.165 33.875524,28.1720492 34.0273471,28.1776885 C34.0913096,28.1798033 34.1552721,28.182623 34.2178288,28.1847377 C34.423774,28.190377 34.624799,28.1939016 34.8145779,28.1939016 C35.0036538,28.1939016 35.2046788,28.190377 35.410624,28.1847377 C35.4745865,28.182623 35.5392519,28.1798033 35.6039173,28.1776885 C35.7543346,28.1720492 35.9068606,28.165 36.0636038,28.1558361 C36.1374067,28.1516066 36.2098038,28.147377 36.2843096,28.1424426 C36.4544077,28.1311639 36.6266144,28.1170656 36.8002269,28.1008525 C36.8564577,28.095918 36.9112827,28.0916885 36.9675135,28.0860492 C37.1938423,28.0634918 37.420874,28.0374098 37.6479058,28.0063934 C37.7034337,27.9986393 37.7582587,27.9894754 37.8137865,27.9817213 C37.9866962,27.9570492 38.1582,27.9295574 38.3282981,27.8992459 C38.4049125,27.8858525 38.4794183,27.8710492 38.5546269,27.8569508 C38.7099644,27.8266393 38.8624904,27.7942131 39.0136106,27.7589672 C39.0824933,27.7427541 39.151376,27.7279508 39.2188529,27.7110328 C39.4290154,27.6581639 39.6342577,27.6017705 39.8289567,27.5383279 C39.8387971,27.5348033 39.8472317,27.5312787 39.8570721,27.528459 C40.040525,27.4678361 40.2141375,27.4008689 40.3793154,27.330377 C40.3989962,27.321918 40.4221913,27.3148689 40.4418721,27.3064098 L40.4460894,29.5536885 C40.2654481,29.9914426 38.1321933,31.0149836 34.8152808,31.0149836 L34.8152808,31.0149836 Z" id="Shape"></path>
                        </g>
                    </g>
                </g>
            </g>
        </g>
    </g>
</svg>