<?xml version="1.0" encoding="UTF-8"?>
<svg width="35px" height="30px" viewBox="0 0 35 30" version="1.1" xmlns="http://www.w3.org/2000/svg" xmlns:xlink="http://www.w3.org/1999/xlink">
    <!-- Generator: Sketch 40 (33762) - http://www.bohemiancoding.com/sketch -->
    <title>next</title>
    <desc>Created with Sketch.</desc>
    <defs></defs>
    <g  stroke="none" stroke-width="1" fill="none" fill-rule="evenodd">
        <g id="Homepage" transform="translate(-849.000000, -2285.000000)" fill="#FFFFFF">
            <g id="cities" transform="translate(150.000000, 1610.000000)">
                <g id="new-york-copy" transform="translate(585.000000, 576.000000)">
                    <g id="next" transform="translate(114.000000, 99.000000)">
                        <g  >
                            <path d="M34.6455533,12.9723571 L19.1896107,0.286642857 C18.9027254,0.0509285714 18.5010861,0.000928571429 18.1639959,0.158071429 C17.8269057,0.315214286 17.6117418,0.658071429 17.6117418,1.0295 L17.6117418,7.71521429 C10.1096926,7.98664286 4.95293033,10.6223571 2.27055328,15.5580714 C-0.0388729508,19.8152143 -0.0173565574,24.8580714 0.00415983607,28.1937857 L0.00415983607,28.9652143 C0.00415983607,29.4009286 0.298217213,29.7866429 0.728545082,29.9009286 C0.807438525,29.9223571 0.893504098,29.9295 0.972397541,29.9295 C1.31665984,29.9295 1.63940574,29.7509286 1.81153689,29.4437857 C7.04719262,20.2509286 11.3576434,19.8080714 17.6045697,19.7866429 L17.6045697,26.4509286 C17.6045697,26.8223571 17.8197336,27.1652143 18.1639959,27.3223571 C18.5082582,27.4795 18.9027254,27.4295 19.1967828,27.1937857 L34.6455533,14.4652143 C34.8678893,14.2795 34.9969877,14.0080714 34.9969877,13.7223571 C34.9969877,13.4366429 34.8678893,13.1580714 34.6455533,12.9723571 L34.6455533,12.9723571 Z M19.5482172,24.4009286 L19.5482172,18.8223571 C19.5482172,18.5652143 19.4478074,18.3223571 19.261332,18.1437857 C19.0820287,17.9652143 18.8310041,17.8580714 18.5799795,17.8580714 C14.6783402,17.8580714 11.6875615,17.9652143 8.78284836,19.3152143 C6.27260246,20.4795 4.09944672,22.4580714 1.95497951,25.5652143 C2.04104508,22.7295 2.4139959,19.3437857 3.97034836,16.4795 C6.43756148,11.9366429 11.2142008,9.68664286 18.5799795,9.62235714 C19.1107172,9.61521429 19.5410451,9.18664286 19.5410451,8.65807143 L19.5410451,3.07235714 L32.5010861,13.7223571 L19.5482172,24.4009286 L19.5482172,24.4009286 Z"  ></path>
                        </g>
                    </g>
                </g>
            </g>
        </g>
    </g>
</svg>