<svg width="37px" height="43px" viewBox="0 0 37 43" version="1.1" xmlns="http://www.w3.org/2000/svg" xmlns:xlink="http://www.w3.org/1999/xlink">
    <g id="Welcome" stroke="none" stroke-width="1" fill="none" fill-rule="evenodd">
        <g id="Homepage" transform="translate(-516.000000, -711.000000)" fill="#FFFFFF">
            <g id="Header-featured" transform="translate(0.000000, 679.000000)">
                <g id="coffee-cup" transform="translate(516.000000, 32.000000)">
                    <g id="Group">
                        <path d="M31.1115288,21.5464363 C30.5879649,21.5464363 30.0765489,21.6153477 29.5814536,21.7486199 L29.5814536,21.5 C29.5814536,20.2965572 28.6038747,19.3174946 27.4022556,19.3174946 L2.17919799,19.3174946 C0.977578947,19.3174946 0,20.2965572 0,21.5 L0,31.9017279 C0,34.9284449 1.41295489,37.8738985 3.70927318,39.6789698 L3.70927318,40.8174946 C3.70927318,42.0209374 4.68685213,43 5.88847118,43 L23.6929825,43 C24.8946015,43 25.8721805,42.0209374 25.8721805,40.8174946 L25.8721805,39.6789698 C27.4945238,38.4037365 28.6750927,36.5590086 29.2287945,34.5186911 C29.8321078,34.7231037 30.4625915,34.8272138 31.1115288,34.8272138 C34.3584411,34.8272138 37,32.1816458 37,28.9298056 L37,27.4438445 C37,24.1920043 34.3584411,21.5464363 31.1115288,21.5464363 L31.1115288,21.5464363 Z M29.5814536,27.4438445 C29.5814536,26.5988898 30.2678546,25.9114471 31.1115288,25.9114471 C31.955203,25.9114471 32.641604,26.5988898 32.641604,27.4438445 L32.641604,28.9298056 C32.641604,29.7747603 31.955203,30.462203 31.1115288,30.462203 C30.2678546,30.462203 29.5814536,29.7747603 29.5814536,28.9298056 L29.5814536,27.4438445 L29.5814536,27.4438445 Z M23.6929825,41.6069114 L5.88847118,41.6069114 C5.45383709,41.6069114 5.10025063,41.2527883 5.10025063,40.8174946 L5.10025063,40.0280778 L24.481203,40.0280778 L24.481203,40.8174946 C24.481203,41.2527883 24.1276165,41.6069114 23.6929825,41.6069114 L23.6929825,41.6069114 Z M28.1904762,31.9017279 C28.1904762,34.5372657 26.9524135,37.0956263 24.9460677,38.6349892 L4.63538596,38.6349892 C2.6290401,37.0955335 1.39097744,34.5372657 1.39097744,31.9017279 L1.39097744,21.5 C1.39097744,21.0647063 1.74456391,20.7105832 2.17919799,20.7105832 L27.4022556,20.7105832 C27.8368897,20.7105832 28.1904762,21.0647063 28.1904762,21.5 L28.1904762,27.4438445 L28.1904762,28.9298056 L28.1904762,31.9017279 L28.1904762,31.9017279 Z M35.6090226,28.9298056 C35.6090226,31.4134968 33.5914561,33.4341253 31.1115288,33.4341253 C30.5537469,33.4341253 30.0143258,33.332987 29.5026316,33.1360043 C29.5540977,32.7278294 29.5814536,32.3156609 29.5814536,31.9017279 L29.5814536,31.4205551 C30.0267519,31.6959222 30.5508722,31.8552916 31.1115288,31.8552916 C32.722188,31.8552916 34.0325815,30.5429093 34.0325815,28.9298056 L34.0325815,27.4438445 C34.0325815,25.8307408 32.722188,24.5183585 31.1115288,24.5183585 C30.5508722,24.5183585 30.0267519,24.6777279 29.5814536,24.953095 L29.5814536,23.2078337 C30.069594,23.0304471 30.5823083,22.9395248 31.1115288,22.9395248 C33.5914561,22.9395248 35.6090226,24.9601533 35.6090226,27.4438445 L35.6090226,28.9298056 L35.6090226,28.9298056 Z" id="Shape"></path>
                        <path d="M14.3209474,13.8055076 C13.5593409,14.5043737 12.6115288,15.3741253 12.6115288,17.0421166 C12.6115288,17.4267948 12.9228296,17.7386609 13.3070175,17.7386609 C13.6912055,17.7386609 14.0025063,17.4267948 14.0025063,17.0421166 C14.0025063,15.9870842 14.5576917,15.4776782 15.2605063,14.8326782 C16.0221128,14.1338121 16.9699248,13.2640605 16.9699248,11.5960691 C16.9699248,9.9272419 16.0222055,9.05702592 15.2606917,8.35769546 C14.5576917,7.71232397 14.0025063,7.20236069 14.0025063,6.1463067 C14.0025063,5.09015983 14.5577845,4.58028942 15.2606917,3.93473218 C16.0222055,3.23558747 16.9699248,2.36537149 16.9699248,0.696544276 C16.9699248,0.311866091 16.6586241,0 16.2744361,0 C15.8902481,0 15.5789474,0.311866091 15.5789474,0.696544276 C15.5789474,1.75259827 15.0237619,2.26246868 14.3207619,2.90802592 C13.5592481,3.6072635 12.6115288,4.47747948 12.6115288,6.1463067 C12.6115288,7.81513391 13.5592481,8.68534989 14.3207619,9.38458747 C15.0236692,10.0301447 15.5789474,10.5400151 15.5789474,11.596162 C15.5789474,12.6511015 15.0237619,13.1606004 14.3209474,13.8055076 L14.3209474,13.8055076 Z" id="Shape"></path>
                        <path d="M18.7720752,13.8055076 C18.0104687,14.5043737 17.0626566,15.3741253 17.0626566,17.0421166 C17.0626566,17.4267948 17.3739574,17.7386609 17.7581454,17.7386609 C18.1423333,17.7386609 18.4536341,17.4267948 18.4536341,17.0421166 C18.4536341,15.9870842 19.0088195,15.4776782 19.7116341,14.8326782 C20.4732406,14.133905 21.4210526,13.2640605 21.4210526,11.5960691 C21.4210526,9.9272419 20.4733333,9.05702592 19.7118195,8.35769546 C19.0088195,7.71232397 18.4536341,7.20236069 18.4536341,6.1463067 C18.4536341,5.76162851 18.1423333,5.44976242 17.7581454,5.44976242 C17.3739574,5.44976242 17.0626566,5.76162851 17.0626566,6.1463067 C17.0626566,7.81513391 18.0103759,8.68534989 18.7718897,9.38458747 C19.474797,10.0301447 20.0300752,10.5400151 20.0300752,11.596162 C20.0300752,12.6511015 19.4748897,13.1606004 18.7720752,13.8055076 L18.7720752,13.8055076 Z" id="Shape"></path>
                        <path d="M9.86981955,13.8055076 C9.10821303,14.5043737 8.160401,15.3741253 8.160401,17.0421166 C8.160401,17.4267948 8.47170175,17.7386609 8.85588972,17.7386609 C9.24007769,17.7386609 9.55137845,17.4267948 9.55137845,17.0421166 C9.55137845,15.9870842 10.1065639,15.4776782 10.8093784,14.8326782 C11.570985,14.133905 12.518797,13.2640605 12.518797,11.5960691 C12.518797,9.9272419 11.5710777,9.05702592 10.8095639,8.35769546 C10.1065639,7.71232397 9.55137845,7.20236069 9.55137845,6.1463067 C9.55137845,5.76162851 9.24007769,5.44976242 8.85588972,5.44976242 C8.47170175,5.44976242 8.160401,5.76162851 8.160401,6.1463067 C8.160401,7.81513391 9.1081203,8.68534989 9.86963409,9.38458747 C10.5725414,10.0301447 11.1278195,10.5400151 11.1278195,11.596162 C11.1278195,12.6511015 10.5726341,13.1606004 9.86981955,13.8055076 L9.86981955,13.8055076 Z" id="Shape"></path>
                    </g>
                </g>
            </g>
        </g>
    </g>
</svg>